<svg width="26" height="26" xmlns="http://www.w3.org/2000/svg">

 <g>
  <title>background</title>
  <rect fill="none" id="canvas_background" height="28" width="28" y="-1" x="-1"/>
 </g>
 <g>
  <title>Layer 1</title>
  <g stroke="null" id="svg_6">
   <g stroke="null" transform="matrix(-0.20543578911223537,0,0,0.25098375916355026,25.780654203399596,-688.4796767501628) " id="svg_4" fill="#28334C">
    <path fill="#9B59B6" stroke="null" id="svg_5" d="m48.7088,2760.63245c11.7,-1 15,-8.5 28.7,-9.8c6.7,-0.6 11,0.8 11.4,3.1c0.4,2.2 -2.9,3.7 -7,4c-5.6,0.6 -8,-1.5 -8.4,-3.4c-4.1,0.4 -4.8,2.2 -4.6,3.5c0.4,2.4 5.5,4.7 14.1,3.9c9.8,-0.8 13,-4.6 12.2,-8.5c-1,-5 -8.5,-9.2 -22,-8c-17.3,1.6 -17.2,9.5 -28.9,10.5c-4.8,0.4 -7.5,-0.7 -8,-2.6c-0.3,-1.9 2,-2.8 4.8,-3c2.6,-0.2 5.7,0.2 7.2,1c1.1,-0.6 1.5,-1.1 1.3,-1.8c-0.4,-1.8 -4,-2.6 -8.5,-2.2c-8.7,0.8 -8.7,4.7 -8.4,6.4c1.1,4.7 7.8,7.7 16.1,6.9zm58.6,19.8c-10.8,2.5 -24.6,4.1 -41.2,4.1c-16.9,0 -30.7,-1.8 -41.5,-4.1c-9.6,-2.5 -14.8,-5.2 -16.6,-8c0.9,6.3 2.5,12.4 4.6,18.2c-2.4,1.5 -4.7,3.5 -6.7,6c-3.8,4.8 -5.5,10.4 -5.2,15.9c0.3,5.5 3,10 7.3,13.5c4.5,3.5 9.3,4.5 14.8,3.5c2.1,-0.3 4.5,-1.5 6.6,-2.1c-4.5,0 -8.3,-1.5 -12.1,-4.5c-4.1,-3 -7,-7.3 -7.6,-12.4c-1,-4.8 0,-9.3 2.7,-13.2c0.6,-0.8 1.2,-1.4 1.9,-2c1.5,3.8 3.3,7.4 5.2,10.9c4.1,6.3 8.3,11.8 12.4,17.7c1.8,3.5 3,7 3.8,10.4c2.7,3.8 6.6,6.5 11.4,7.9c5.9,2.1 12.1,2.9 18.4,2.9l0.7,0c6.3,0 12.9,-1 19,-3c4.5,-1.5 8.3,-4 11.1,-8l0.3,0c0.7,-3 1.8,-6.8 3.5,-10.3c4.1,-5.9 8.3,-11.4 12.4,-17.7c5.5,-10 9.3,-21.4 11.4,-33.6c-2.1,3 -7.3,5.8 -16.6,7.9zm-82.7,-8.7c10.8,2.7 24.6,4.1 41.2,4.1c16.9,0 30.4,-1.5 41.2,-4.1c11.4,-2.7 16.9,-6.3 16.9,-9.6c0,-2.5 -2.5,-4.8 -7,-6.6c1,0.7 1.8,1.8 1.8,3c0,3.5 -5.2,6.3 -15.6,8.6c-9.6,2.1 -22,3.6 -37,3.6c-14.5,0 -27.4,-1.5 -36.7,-3.5c-10,-2.5 -15.3,-5.2 -15.3,-8.6c0,-1.5 0.7,-2.7 2.7,-4.1c-6.3,2.5 -9.6,4.5 -9.6,7.6c0.3,3.5 5.9,7 17.4,9.6z"/>
   </g>
  </g>
 </g>
</svg>