<?xml version="1.0" encoding="utf-8"?>
<!-- Generator: Adobe Illustrator 16.0.0, SVG Export Plug-In . SVG Version: 6.00 Build 0)  -->
<!DOCTYPE svg PUBLIC "-//W3C//DTD SVG 1.1//EN" "http://www.w3.org/Graphics/SVG/1.1/DTD/svg11.dtd">
<svg version="1.1" id="Layer_1" xmlns="http://www.w3.org/2000/svg" xmlns:xlink="http://www.w3.org/1999/xlink" x="0px" y="0px"
	 width="16px" height="16px" viewBox="0 0 16 16" enable-background="new 0 0 16 16" xml:space="preserve">
<path id="paper" display="none" fill="#FFFFFF" stroke="#CFD0D1" stroke-width="0.67" d="M14.667,1.333c0-0.552-0.448-1-1-1H2.333
	c-0.552,0-1,0.448-1,1v13.334c0,0.552,0.448,1,1,1h11.334c0.552,0,1-0.448,1-1V1.333z"/>
<path display="none" fill="#304050" d="M5.892,10.559V9.428L3.639,8.017V7.983l2.253-1.411v-1.13L2.611,7.567v0.866L5.892,10.559z"
	/>
<path display="none" fill="#304050" d="M10.107,10.559l3.281-2.125V7.566l-3.281-2.125v1.131l2.252,1.411v0.034l-2.252,1.411V10.559
	z"/>
<path display="none" fill="#304050" d="M6.079,11.698h1.046l2.796-7.396H8.875L6.079,11.698z"/>
<g display="none">
	<title>Layer 1</title>
	<g id="svg_6" display="inline">
		<g id="svg_4" transform="matrix(-0.20543578911223537,0,0,0.25098375916355026,25.780654203399596,-688.4796767501628) ">
			<path id="svg_5" fill="#9B59B6" d="M79.725,2757.656c5.883-0.502,7.537-4.266,14.415-4.918c3.361-0.302,5.519,0.399,5.719,1.554
				c0.2,1.105-1.452,1.86-3.513,2.006c-2.814,0.305-4.017-0.751-4.212-1.702c-2.063,0.198-2.415,1.103-2.31,1.755
				c0.195,1.206,2.757,2.36,7.073,1.959c4.92-0.401,6.527-2.309,6.127-4.268c-0.504-2.511-4.269-4.616-11.052-4.015
				c-8.673,0.805-8.625,4.768-14.501,5.272c-2.415,0.198-3.765-0.352-4.012-1.305c-0.152-0.955,0.998-1.409,2.405-1.508
				c1.302-0.099,2.862,0.099,3.622,0.506c0.551-0.303,0.751-0.554,0.646-0.909c-0.2-0.902-2.006-1.303-4.269-1.101
				c-4.364,0.401-4.364,2.358-4.221,3.21C72.204,2756.549,75.57,2758.055,79.725,2757.656L79.725,2757.656z M109.142,2767.596
				c-5.419,1.253-12.345,2.059-20.678,2.059c-8.483,0-15.404-0.907-20.833-2.059c-4.811-1.255-7.425-2.611-8.328-4.015
				c0.447,3.161,1.255,6.219,2.31,9.136c-1.207,0.753-2.358,1.757-3.365,3.012c-1.911,2.408-2.767,5.222-2.605,7.98
				c0.152,2.759,1.502,5.019,3.66,6.778c2.263,1.755,4.668,2.253,7.425,1.755c1.055-0.152,2.263-0.747,3.318-1.055
				c-2.263,0-4.174-0.755-6.075-2.257c-2.053-1.506-3.518-3.665-3.812-6.225c-0.504-2.408,0-4.665,1.36-6.624
				c0.295-0.401,0.599-0.702,0.941-1.002c0.761,1.903,1.654,3.712,2.615,5.463c2.054,3.167,4.164,5.926,6.218,8.895
				c0.913,1.751,1.512,3.51,1.911,5.218c1.359,1.907,3.318,3.261,5.723,3.961c2.966,1.059,6.077,1.455,9.234,1.455h0.352
				c3.166,0,6.484-0.498,9.543-1.506c2.258-0.751,4.162-2.004,5.567-4.016h0.155c0.349-1.506,0.903-3.408,1.756-5.167
				c2.053-2.965,4.167-5.728,6.22-8.887c2.767-5.019,4.673-10.741,5.726-16.867C116.425,2765.137,113.815,2766.542,109.142,2767.596
				L109.142,2767.596z M67.631,2763.23c5.429,1.356,12.35,2.054,20.681,2.054c8.485,0,15.261-0.751,20.683-2.054
				c5.723-1.358,8.483-3.165,8.483-4.825c0-1.251-1.255-2.405-3.515-3.309c0.506,0.354,0.906,0.905,0.906,1.508
				c0,1.755-2.615,3.159-7.832,4.315c-4.82,1.055-11.043,1.805-18.572,1.805c-7.275,0-13.75-0.751-18.418-1.755
				c-5.029-1.253-7.682-2.611-7.682-4.319c0-0.753,0.352-1.352,1.35-2.054c-3.156,1.255-4.811,2.259-4.811,3.809
				C59.056,2760.164,61.861,2761.927,67.631,2763.23z"/>
		</g>
	</g>
</g>
<g display="none">
	<title>Layer 1</title>
	<g id="svg_12" display="inline">
		<path id="svg_11" fill="#5B4282" d="M9.272,8.115C9.029,8.034,8.679,8.053,8.222,8.053H6.384v2.395h1.964
			c0.307,0,0.521-0.032,0.646-0.055c0.22-0.039,0.402-0.115,0.55-0.208C9.69,10.095,9.81,9.957,9.906,9.783
			c0.095-0.177,0.142-0.38,0.142-0.607c0-0.271-0.067-0.475-0.205-0.673C9.706,8.306,9.516,8.193,9.272,8.115L9.272,8.115z
			 M9.02,7.019c0.241-0.071,0.425-0.197,0.547-0.364C9.688,6.489,9.75,6.278,9.75,6.025c0-0.238-0.059-0.449-0.173-0.631
			C9.464,5.214,9.3,5.143,9.089,5.077C8.876,5.009,8.511,5.029,7.997,5.029H6.384v2.085h1.73C8.535,7.114,8.836,7.074,9.02,7.019
			L9.02,7.019z M14.515,3.219c0-0.957-0.776-1.732-1.732-1.732H3.219c-0.957,0-1.732,0.776-1.732,1.732v9.563
			c0,0.957,0.776,1.73,1.732,1.73h9.563c0.956,0,1.732-0.773,1.732-1.73V3.219z M10.819,10.109
			c-0.142,0.289-0.317,0.512-0.525,0.669c-0.21,0.156-0.472,0.29-0.787,0.368c-0.314,0.081-0.702,0.137-1.158,0.137H5.447V4.092
			h2.857c0.55,0,0.989,0.063,1.32,0.208s0.593,0.364,0.78,0.666c0.187,0.303,0.281,0.616,0.281,0.946
			c0,0.307-0.084,0.596-0.25,0.866c-0.167,0.271-0.419,0.49-0.755,0.655c0.436,0.128,0.769,0.345,1.002,0.654
			c0.234,0.304,0.35,0.667,0.35,1.086C11.032,9.509,10.962,9.822,10.819,10.109z"/>
	</g>
</g>
<g>
	<title>Layer 1</title>
	<g id="svg_51">
		<path id="svg_50" fill="#1572B6" d="M1.931,1.107l1.105,12.405l4.958,1.381l4.973-1.387L14.07,1.107H1.931z M11.775,3.949
			l-0.368,4.132l0.001,0.022l-0.001,0.052V8.154l-0.262,2.889l-0.028,0.258L8,12.162l0,0l-0.002,0.002l-3.111-0.867l-0.21-2.389
			h1.525l0.108,1.215l1.69,0.459h0l0,0l1.697-0.465l0.18-1.978H6.329l-0.03-0.334L6.229,7.022L6.193,6.601h3.818l0.139-1.538H4.335
			L4.304,4.729L4.235,3.945L4.199,3.524h7.613L11.775,3.949L11.775,3.949z"/>
	</g>
</g>
</svg>
