<?xml version="1.0" encoding="utf-8"?>
<!-- Generator: Adobe Illustrator 16.0.0, SVG Export Plug-In . SVG Version: 6.00 Build 0)  -->
<!DOCTYPE svg PUBLIC "-//W3C//DTD SVG 1.1//EN" "http://www.w3.org/Graphics/SVG/1.1/DTD/svg11.dtd">
<svg version="1.1" id="Layer_1" xmlns="http://www.w3.org/2000/svg" xmlns:xlink="http://www.w3.org/1999/xlink" x="0px" y="0px"
	 width="16px" height="16px" viewBox="0 0 16 16" enable-background="new 0 0 16 16" xml:space="preserve">
<path id="paper" display="none" fill="#FFFFFF" stroke="#CFD0D1" stroke-width="0.67" d="M14.667,1.333c0-0.552-0.448-1-1-1H2.333
	c-0.552,0-1,0.448-1,1v13.334c0,0.552,0.448,1,1,1h11.334c0.552,0,1-0.448,1-1V1.333z"/>
<path display="none" fill="#304050" d="M5.892,10.559V9.428L3.639,8.017V7.983l2.253-1.411v-1.13L2.611,7.567v0.866L5.892,10.559z"
	/>
<path display="none" fill="#304050" d="M10.107,10.559l3.281-2.125V7.566l-3.281-2.125v1.131l2.252,1.411v0.034l-2.252,1.411V10.559
	z"/>
<path display="none" fill="#304050" d="M6.079,11.698h1.046l2.796-7.396H8.875L6.079,11.698z"/>
<g display="none">
	<title>Layer 1</title>
	<g id="svg_6" display="inline">
		<g id="svg_4" transform="matrix(-0.20543578911223537,0,0,0.25098375916355026,25.780654203399596,-688.4796767501628) ">
			<path id="svg_5" fill="#9B59B6" d="M79.725,2757.656c5.883-0.502,7.537-4.266,14.415-4.918c3.361-0.302,5.519,0.399,5.719,1.554
				c0.2,1.105-1.452,1.86-3.513,2.006c-2.814,0.305-4.017-0.751-4.212-1.702c-2.063,0.198-2.415,1.103-2.31,1.755
				c0.195,1.206,2.757,2.36,7.073,1.959c4.92-0.401,6.527-2.309,6.127-4.268c-0.504-2.511-4.269-4.616-11.052-4.015
				c-8.673,0.805-8.625,4.768-14.501,5.272c-2.415,0.198-3.765-0.352-4.012-1.305c-0.152-0.955,0.998-1.409,2.405-1.508
				c1.302-0.099,2.862,0.099,3.622,0.506c0.551-0.303,0.751-0.554,0.646-0.909c-0.2-0.902-2.006-1.303-4.269-1.101
				c-4.364,0.401-4.364,2.358-4.221,3.21C72.204,2756.549,75.57,2758.055,79.725,2757.656L79.725,2757.656z M109.142,2767.596
				c-5.419,1.253-12.345,2.059-20.678,2.059c-8.483,0-15.404-0.907-20.833-2.059c-4.811-1.255-7.425-2.611-8.328-4.015
				c0.447,3.161,1.255,6.219,2.31,9.136c-1.207,0.753-2.358,1.757-3.365,3.012c-1.911,2.408-2.767,5.222-2.605,7.98
				c0.152,2.759,1.502,5.019,3.66,6.778c2.263,1.755,4.668,2.253,7.425,1.755c1.055-0.152,2.263-0.747,3.318-1.055
				c-2.263,0-4.174-0.755-6.075-2.257c-2.053-1.506-3.518-3.665-3.812-6.225c-0.504-2.408,0-4.665,1.36-6.624
				c0.295-0.401,0.599-0.702,0.941-1.002c0.761,1.903,1.654,3.712,2.615,5.463c2.054,3.167,4.164,5.926,6.218,8.895
				c0.913,1.751,1.512,3.51,1.911,5.218c1.359,1.907,3.318,3.261,5.723,3.961c2.966,1.059,6.077,1.455,9.234,1.455h0.352
				c3.166,0,6.484-0.498,9.543-1.506c2.258-0.751,4.162-2.004,5.567-4.016h0.155c0.349-1.506,0.903-3.408,1.756-5.167
				c2.053-2.965,4.167-5.728,6.22-8.887c2.767-5.019,4.673-10.741,5.726-16.867C116.425,2765.137,113.815,2766.542,109.142,2767.596
				L109.142,2767.596z M67.631,2763.23c5.429,1.356,12.35,2.054,20.681,2.054c8.485,0,15.261-0.751,20.683-2.054
				c5.723-1.358,8.483-3.165,8.483-4.825c0-1.251-1.255-2.405-3.515-3.309c0.506,0.354,0.906,0.905,0.906,1.508
				c0,1.755-2.615,3.159-7.832,4.315c-4.82,1.055-11.043,1.805-18.572,1.805c-7.275,0-13.75-0.751-18.418-1.755
				c-5.029-1.253-7.682-2.611-7.682-4.319c0-0.753,0.352-1.352,1.35-2.054c-3.156,1.255-4.811,2.259-4.811,3.809
				C59.056,2760.164,61.861,2761.927,67.631,2763.23z"/>
		</g>
	</g>
</g>
<g display="none">
	<title>Layer 1</title>
	<g id="svg_12" display="inline">
		<path id="svg_11" fill="#5B4282" d="M9.272,8.115C9.029,8.034,8.679,8.053,8.222,8.053H6.384v2.395h1.964
			c0.307,0,0.521-0.032,0.646-0.055c0.22-0.039,0.402-0.115,0.55-0.208C9.69,10.095,9.81,9.957,9.906,9.783
			c0.095-0.177,0.142-0.38,0.142-0.607c0-0.271-0.067-0.475-0.205-0.673C9.706,8.306,9.516,8.193,9.272,8.115L9.272,8.115z
			 M9.02,7.019c0.241-0.071,0.425-0.197,0.547-0.364C9.688,6.489,9.75,6.278,9.75,6.025c0-0.238-0.059-0.449-0.173-0.631
			C9.464,5.214,9.3,5.143,9.089,5.077C8.876,5.009,8.511,5.029,7.997,5.029H6.384v2.085h1.73C8.535,7.114,8.836,7.074,9.02,7.019
			L9.02,7.019z M14.515,3.219c0-0.957-0.776-1.732-1.732-1.732H3.219c-0.957,0-1.732,0.776-1.732,1.732v9.563
			c0,0.957,0.776,1.73,1.732,1.73h9.563c0.956,0,1.732-0.773,1.732-1.73V3.219z M10.819,10.109
			c-0.142,0.289-0.317,0.512-0.525,0.669c-0.21,0.156-0.472,0.29-0.787,0.368c-0.314,0.081-0.702,0.137-1.158,0.137H5.447V4.092
			h2.857c0.55,0,0.989,0.063,1.32,0.208s0.593,0.364,0.78,0.666c0.187,0.303,0.281,0.616,0.281,0.946
			c0,0.307-0.084,0.596-0.25,0.866c-0.167,0.271-0.419,0.49-0.755,0.655c0.436,0.128,0.769,0.345,1.002,0.654
			c0.234,0.304,0.35,0.667,0.35,1.086C11.032,9.509,10.962,9.822,10.819,10.109z"/>
	</g>
</g>
<g display="none">
	<title>Layer 1</title>
	<g id="svg_51" display="inline">
		<path id="svg_50" fill="#1572B6" d="M1.931,1.107l1.105,12.405l4.958,1.381l4.973-1.387L14.07,1.107H1.931z M11.775,3.949
			l-0.368,4.132l0.001,0.022l-0.001,0.052V8.154l-0.262,2.889l-0.028,0.258L8,12.162l0,0l-0.002,0.002l-3.111-0.867l-0.21-2.389
			h1.525l0.108,1.215l1.69,0.459h0l0,0l1.697-0.465l0.18-1.978H6.329l-0.03-0.334L6.229,7.022L6.193,6.601h3.818l0.139-1.538H4.335
			L4.304,4.729L4.235,3.945L4.199,3.524h7.613L11.775,3.949L11.775,3.949z"/>
	</g>
</g>
<g display="none">
	<title>Layer 1</title>
	<g id="svg_24" display="inline">
		<g id="svg_22" transform="matrix(0.20374795517671046,0,0,0.20374795517671046,10.743132015725052,11.259001055611481) ">
			<path id="svg_23" fill="#A90533" d="M-38.514-37l-9.406-0.058V6.7h10.775V6.647c-5.306-5.637-8.479-13.511-8.424-22.865
				C-45.624-24.474-42.998-31.642-38.514-37z M20.993-37.058h-8.972c3.393,4.922,5.253,10.559,4.975,17.559
				c0.057,0.654,0.057,1.038,0,2.679h-40.141c0,12.031,4.213,20.95,14.935,21.003C-0.829,4.131,4.477-1.343,8.139-7.248
				l10.396,5.196c-1.86,3.336-3.94,6.015-6.236,8.752h8.694V-37.058z M-12.859-36.183c-4.925,0-9.193,4.048-9.627,8.973H-4.16
				C-4.333-32.135-7.884-36.183-12.859-36.183z"/>
		</g>
	</g>
</g>
<g display="none">
	<title  stroke="null">Layer 1</title>
	<g id="svg_124" display="inline">
		<g id="svg_122" transform="matrix(0.2043992953231604,0,0,0.2043992953231604,-23.416344254425233,-23.089901755043915) ">
			<path id="svg_123" fill="#ECF0F1" d="M137.982,145.114c-0.626,0-1.257-0.342-1.538-0.913l-0.459-0.912l-0.17,1.027l-0.057,0.456
				c0,1.88,1.484,3.368,3.366,3.368s3.368-1.488,3.368-3.368c0-1.77-1.426-3.251-3.196-3.366l-0.972-0.057l0.8,0.628
				c0.401,0.342,0.683,0.855,0.683,1.369C139.752,144.317,138.952,145.114,137.982,145.114z M137.698,137.468
				c2.852,0,5.306,1.942,6.049,4.51c0.456-1.256,1.199-2.339,2.169-3.196c-9.302-0.571-13.299-8.846-13.299-8.846l-0.227,10.442
				C133.474,138.667,135.414,137.468,137.698,137.468z M152.418,149.453c2.114,0,3.824-1.713,3.824-3.825
				c0-2.054-1.596-3.765-3.65-3.824l-0.855-0.055l0.681,0.514c0.516,0.399,0.803,1.027,0.803,1.71c0,1.199-0.972,2.172-2.172,2.172
				c-0.798,0-1.541-0.459-1.94-1.144l-0.399-0.741l-0.115,0.855l-0.057,0.514C148.596,147.682,150.309,149.453,152.418,149.453z
				 M189.114,176.385c-0.229-0.793-0.459-1.596-0.688-2.341c-1.424-5.131-2.508-9.125-7.019-8.734
				c-0.683,0.067-1.252,0.287-1.763,0.631l-4.515-2.852h-0.172l-0.339-1.084l-0.683,0.459c-1.429-0.917-3.024-1.71-4.625-2.456
				c5.136-6.106,7.931-16.889,5.991-34.521c-0.172-1.541-1.027-1.77-1.596-0.115c-0.454,1.426-3.483,10.444-19.058,12.955
				c2.054,1.314,3.421,3.593,3.421,6.218c0,4.109-3.311,7.42-7.415,7.42c-3.483,0-6.45-2.453-7.193-5.705
				c-0.968,2.279-3.194,3.877-5.819,3.877c-2.623,0-4.849-1.598-5.822-3.877c-0.057,0.112-0.112,0.227-0.17,0.282
				c-0.057-0.115-0.172-0.229-0.229-0.396c-3.082-4.226-7.988-5.936-11.015-3.77c-3.022,2.229-2.965,7.42,0.115,11.641
				c2.57,3.54,6.393,5.308,9.36,4.51c8.617,6.393,24.538,11.925,35.212,5.141c2.107,1.194,4.505,2.332,6.732,3.134v0.057
				l0.229,0.678l0.908-0.334l0.115,0.105l5.026,1.835c0.052,1.596,1.022,3.364,3.082,4.166c3.822,1.481,7.472,3.306,7.472,3.364
				l0.573,0.287L189.114,176.385z M120.063,146.653c0-1.823,1.257-3.306,2.74-3.306c1.541,0,2.74,1.483,2.74,3.306
				c0,1.83-1.254,3.311-2.74,3.311C121.263,149.964,120.063,148.483,120.063,146.653z M140.952,157.274
				c10.442,2.112,15.802,0.167,18.884-2.284c-0.793-1.089-2.222-2.226-2.222-2.226s3.65,1.022,4.964,2.685
				c0.568,0.736,0.745,1.366,0.683,1.992c-1.825-0.626-3.196-1.027-3.478-1.142c-1.142-0.516-2.226-0.172-2.513,0.683
				c-0.229,0.631-0.057,1.371,0.516,1.944C154.191,160.58,148.309,159.892,140.952,157.274z"/>
		</g>
	</g>
</g>
<g display="none">
	<title  stroke="null">Layer 1</title>
	<g id="svg_31" display="inline">
		<path id="svg_30" fill="#F34F29" d="M14.4,7.408L8.592,1.601c-0.334-0.334-0.876-0.334-1.211,0L6.175,2.807l1.53,1.53
			c0.356-0.12,0.762-0.04,1.047,0.244c0.284,0.285,0.364,0.696,0.242,1.053l1.473,1.474c0.357-0.123,0.769-0.043,1.054,0.242
			c0.398,0.398,0.398,1.043,0,1.442c-0.398,0.397-1.044,0.397-1.442,0c-0.299-0.3-0.372-0.74-0.221-1.109L8.482,6.307v3.619
			c0.097,0.048,0.189,0.111,0.27,0.192c0.396,0.397,0.396,1.043,0,1.441c-0.398,0.397-1.044,0.397-1.441,0
			c-0.398-0.398-0.398-1.043,0-1.441c0.098-0.099,0.212-0.173,0.333-0.222V6.244C7.522,6.194,7.409,6.121,7.311,6.022
			C7.009,5.72,6.936,5.277,7.091,4.907L5.582,3.399L1.601,7.381c-0.334,0.334-0.334,0.877,0,1.211L7.408,14.4
			c0.334,0.334,0.877,0.334,1.212,0l5.78-5.78C14.734,8.285,14.734,7.742,14.4,7.408z"/>
	</g>
</g>
<g>
	<title  stroke="null">Layer 1</title>
	<g id="svg_48">
		<g id="svg_45" transform="matrix(0.20370786789520598,0,0,0.20370786789520598,-27.936030503017168,-28.21668241452999) ">
			<path id="svg_46" fill="#FFFFFF" d="M176.407,145.229c-18.433,0-33.38,14.945-33.38,33.378c0,14.751,9.564,27.273,22.829,31.683
				c1.666,0.307,2.28-0.729,2.28-1.611c0-0.796-0.031-3.423-0.048-6.213c-9.286,2.013-11.247-3.941-11.247-3.941
				c-1.517-3.854-3.706-4.88-3.706-4.88c-3.027-2.071,0.23-2.033,0.23-2.033c3.351,0.24,5.115,3.442,5.115,3.442
				c2.977,5.101,7.812,3.624,9.715,2.771c0.3-2.157,1.165-3.624,2.121-4.468c-7.416-0.834-15.209-3.701-15.209-16.489
				c0-3.646,1.302-6.623,3.44-8.962c-0.348-0.837-1.491-4.233,0.321-8.833c0,0,2.804-0.899,9.18,3.421
				c2.665-0.738,5.523-1.11,8.358-1.124c2.836,0.014,5.698,0.386,8.363,1.124c6.371-4.319,9.166-3.421,9.166-3.421
				c1.822,4.595,0.681,7.992,0.331,8.833c2.138,2.339,3.442,5.316,3.442,8.962c0,12.817-7.814,15.645-15.245,16.469
				c1.194,1.036,2.263,3.068,2.263,6.184c0,4.468-0.034,8.054-0.034,9.156c0,0.892,0.594,1.927,2.287,1.601
				c13.255-4.42,22.809-16.923,22.809-31.673C209.789,160.174,194.842,145.229,176.407,145.229L176.407,145.229z"/>
			<path id="svg_47" fill="#FFFFFF" d="M155.668,193.157c-0.074,0.163-0.336,0.22-0.573,0.096c-0.242-0.105-0.376-0.336-0.3-0.489
				c0.072-0.173,0.336-0.221,0.575-0.105C155.616,192.764,155.752,192.994,155.668,193.157L155.668,193.157z M157.023,194.662
				c-0.161,0.153-0.472,0.086-0.683-0.153c-0.218-0.23-0.261-0.537-0.098-0.69c0.165-0.144,0.467-0.077,0.688,0.153
				c0.218,0.23,0.259,0.547,0.094,0.7V194.662z M158.339,196.589c-0.206,0.144-0.539,0.01-0.745-0.288s-0.206-0.661,0.005-0.796
				c0.206-0.144,0.535-0.019,0.745,0.288C158.547,196.081,158.547,196.445,158.339,196.589L158.339,196.589z M160.141,198.449
				c-0.182,0.201-0.573,0.144-0.858-0.134c-0.292-0.268-0.371-0.642-0.189-0.844c0.185-0.211,0.578-0.153,0.865,0.125
				c0.29,0.268,0.379,0.652,0.185,0.853H160.141z M162.629,199.523c-0.084,0.259-0.458,0.384-0.834,0.268
				c-0.376-0.115-0.626-0.422-0.549-0.681c0.079-0.269,0.455-0.384,0.837-0.269C162.461,198.957,162.708,199.255,162.629,199.523z
				 M165.359,199.724c0.012,0.278-0.309,0.508-0.707,0.508c-0.4,0.01-0.724-0.211-0.726-0.489c0-0.268,0.314-0.499,0.714-0.508
				C165.036,199.235,165.359,199.456,165.359,199.724L165.359,199.724z M167.905,199.293c0.046,0.268-0.23,0.547-0.626,0.623
				c-0.388,0.067-0.745-0.105-0.796-0.374c-0.048-0.268,0.235-0.547,0.621-0.614C167.5,198.861,167.852,199.025,167.905,199.293
				L167.905,199.293z"/>
		</g>
	</g>
</g>
</svg>
