<?xml version="1.0" encoding="utf-8"?>
<!-- Generator: Adobe Illustrator 16.0.0, SVG Export Plug-In . SVG Version: 6.00 Build 0)  -->
<!DOCTYPE svg PUBLIC "-//W3C//DTD SVG 1.1//EN" "http://www.w3.org/Graphics/SVG/1.1/DTD/svg11.dtd">
<svg version="1.1" id="Layer_1" xmlns="http://www.w3.org/2000/svg" xmlns:xlink="http://www.w3.org/1999/xlink" x="0px" y="0px"
	 width="16px" height="16px" viewBox="0 0 16 16" enable-background="new 0 0 16 16" xml:space="preserve">
<path id="paper" display="none" fill="#FFFFFF" stroke="#CFD0D1" stroke-width="0.67" d="M14.667,1.333c0-0.552-0.448-1-1-1H2.333
	c-0.552,0-1,0.448-1,1v13.334c0,0.552,0.448,1,1,1h11.334c0.552,0,1-0.448,1-1V1.333z"/>
<path display="none" fill="#304050" d="M5.892,10.559V9.428L3.639,8.017V7.983l2.253-1.411v-1.13L2.611,7.567v0.866L5.892,10.559z"
	/>
<path display="none" fill="#304050" d="M10.107,10.559l3.281-2.125V7.566l-3.281-2.125v1.131l2.252,1.411v0.034l-2.252,1.411V10.559
	z"/>
<path display="none" fill="#304050" d="M6.079,11.698h1.046l2.796-7.396H8.875L6.079,11.698z"/>
<g display="none">
	<title>Layer 1</title>
	<g id="svg_6" display="inline">
		<g id="svg_4" transform="matrix(-0.20543578911223537,0,0,0.25098375916355026,25.780654203399596,-688.4796767501628) ">
			<path id="svg_5" fill="#9B59B6" d="M79.725,2757.656c5.883-0.502,7.537-4.266,14.415-4.918c3.361-0.302,5.519,0.399,5.719,1.554
				c0.2,1.105-1.452,1.86-3.513,2.006c-2.814,0.305-4.017-0.751-4.212-1.702c-2.063,0.198-2.415,1.103-2.31,1.755
				c0.195,1.206,2.757,2.36,7.073,1.959c4.92-0.401,6.527-2.309,6.127-4.268c-0.504-2.511-4.269-4.616-11.052-4.015
				c-8.673,0.805-8.625,4.768-14.501,5.272c-2.415,0.198-3.765-0.352-4.012-1.305c-0.152-0.955,0.998-1.409,2.405-1.508
				c1.302-0.099,2.862,0.099,3.622,0.506c0.551-0.303,0.751-0.554,0.646-0.909c-0.2-0.902-2.006-1.303-4.269-1.101
				c-4.364,0.401-4.364,2.358-4.221,3.21C72.204,2756.549,75.57,2758.055,79.725,2757.656L79.725,2757.656z M109.142,2767.596
				c-5.419,1.253-12.345,2.059-20.678,2.059c-8.483,0-15.404-0.907-20.833-2.059c-4.811-1.255-7.425-2.611-8.328-4.015
				c0.447,3.161,1.255,6.219,2.31,9.136c-1.207,0.753-2.358,1.757-3.365,3.012c-1.911,2.408-2.767,5.222-2.605,7.98
				c0.152,2.759,1.502,5.019,3.66,6.778c2.263,1.755,4.668,2.253,7.425,1.755c1.055-0.152,2.263-0.747,3.318-1.055
				c-2.263,0-4.174-0.755-6.075-2.257c-2.053-1.506-3.518-3.665-3.812-6.225c-0.504-2.408,0-4.665,1.36-6.624
				c0.295-0.401,0.599-0.702,0.941-1.002c0.761,1.903,1.654,3.712,2.615,5.463c2.054,3.167,4.164,5.926,6.218,8.895
				c0.913,1.751,1.512,3.51,1.911,5.218c1.359,1.907,3.318,3.261,5.723,3.961c2.966,1.059,6.077,1.455,9.234,1.455h0.352
				c3.166,0,6.484-0.498,9.543-1.506c2.258-0.751,4.162-2.004,5.567-4.016h0.155c0.349-1.506,0.903-3.408,1.756-5.167
				c2.053-2.965,4.167-5.728,6.22-8.887c2.767-5.019,4.673-10.741,5.726-16.867C116.425,2765.137,113.815,2766.542,109.142,2767.596
				L109.142,2767.596z M67.631,2763.23c5.429,1.356,12.35,2.054,20.681,2.054c8.485,0,15.261-0.751,20.683-2.054
				c5.723-1.358,8.483-3.165,8.483-4.825c0-1.251-1.255-2.405-3.515-3.309c0.506,0.354,0.906,0.905,0.906,1.508
				c0,1.755-2.615,3.159-7.832,4.315c-4.82,1.055-11.043,1.805-18.572,1.805c-7.275,0-13.75-0.751-18.418-1.755
				c-5.029-1.253-7.682-2.611-7.682-4.319c0-0.753,0.352-1.352,1.35-2.054c-3.156,1.255-4.811,2.259-4.811,3.809
				C59.056,2760.164,61.861,2761.927,67.631,2763.23z"/>
		</g>
	</g>
</g>
<g display="none">
	<title>Layer 1</title>
	<g id="svg_12" display="inline">
		<path id="svg_11" fill="#5B4282" d="M9.272,8.115C9.029,8.034,8.679,8.053,8.222,8.053H6.384v2.395h1.964
			c0.307,0,0.521-0.032,0.646-0.055c0.22-0.039,0.402-0.115,0.55-0.208C9.69,10.095,9.81,9.957,9.906,9.783
			c0.095-0.177,0.142-0.38,0.142-0.607c0-0.271-0.067-0.475-0.205-0.673C9.706,8.306,9.516,8.193,9.272,8.115L9.272,8.115z
			 M9.02,7.019c0.241-0.071,0.425-0.197,0.547-0.364C9.688,6.489,9.75,6.278,9.75,6.025c0-0.238-0.059-0.449-0.173-0.631
			C9.464,5.214,9.3,5.143,9.089,5.077C8.876,5.009,8.511,5.029,7.997,5.029H6.384v2.085h1.73C8.535,7.114,8.836,7.074,9.02,7.019
			L9.02,7.019z M14.515,3.219c0-0.957-0.776-1.732-1.732-1.732H3.219c-0.957,0-1.732,0.776-1.732,1.732v9.563
			c0,0.957,0.776,1.73,1.732,1.73h9.563c0.956,0,1.732-0.773,1.732-1.73V3.219z M10.819,10.109
			c-0.142,0.289-0.317,0.512-0.525,0.669c-0.21,0.156-0.472,0.29-0.787,0.368c-0.314,0.081-0.702,0.137-1.158,0.137H5.447V4.092
			h2.857c0.55,0,0.989,0.063,1.32,0.208s0.593,0.364,0.78,0.666c0.187,0.303,0.281,0.616,0.281,0.946
			c0,0.307-0.084,0.596-0.25,0.866c-0.167,0.271-0.419,0.49-0.755,0.655c0.436,0.128,0.769,0.345,1.002,0.654
			c0.234,0.304,0.35,0.667,0.35,1.086C11.032,9.509,10.962,9.822,10.819,10.109z"/>
	</g>
</g>
<g display="none">
	<title>Layer 1</title>
	<g id="svg_51" display="inline">
		<path id="svg_50" fill="#1572B6" d="M1.931,1.107l1.105,12.405l4.958,1.381l4.973-1.387L14.07,1.107H1.931z M11.775,3.949
			l-0.368,4.132l0.001,0.022l-0.001,0.052V8.154l-0.262,2.889l-0.028,0.258L8,12.162l0,0l-0.002,0.002l-3.111-0.867l-0.21-2.389
			h1.525l0.108,1.215l1.69,0.459h0l0,0l1.697-0.465l0.18-1.978H6.329l-0.03-0.334L6.229,7.022L6.193,6.601h3.818l0.139-1.538H4.335
			L4.304,4.729L4.235,3.945L4.199,3.524h7.613L11.775,3.949L11.775,3.949z"/>
	</g>
</g>
<g display="none">
	<title>Layer 1</title>
	<g id="svg_24" display="inline">
		<g id="svg_22" transform="matrix(0.20374795517671046,0,0,0.20374795517671046,10.743132015725052,11.259001055611481) ">
			<path id="svg_23" fill="#A90533" d="M-38.514-37l-9.406-0.058V6.7h10.775V6.647c-5.306-5.637-8.479-13.511-8.424-22.865
				C-45.624-24.474-42.998-31.642-38.514-37z M20.993-37.058h-8.972c3.393,4.922,5.253,10.559,4.975,17.559
				c0.057,0.654,0.057,1.038,0,2.679h-40.141c0,12.031,4.213,20.95,14.935,21.003C-0.829,4.131,4.477-1.343,8.139-7.248
				l10.396,5.196c-1.86,3.336-3.94,6.015-6.236,8.752h8.694V-37.058z M-12.859-36.183c-4.925,0-9.193,4.048-9.627,8.973H-4.16
				C-4.333-32.135-7.884-36.183-12.859-36.183z"/>
		</g>
	</g>
</g>
<g display="none">
	<title  stroke="null">Layer 1</title>
	<g id="svg_124" display="inline">
		<g id="svg_122" transform="matrix(0.2043992953231604,0,0,0.2043992953231604,-23.416344254425233,-23.089901755043915) ">
			<path id="svg_123" fill="#ECF0F1" d="M137.982,145.114c-0.626,0-1.257-0.342-1.538-0.913l-0.459-0.912l-0.17,1.027l-0.057,0.456
				c0,1.88,1.484,3.368,3.366,3.368s3.368-1.488,3.368-3.368c0-1.77-1.426-3.251-3.196-3.366l-0.972-0.057l0.8,0.628
				c0.401,0.342,0.683,0.855,0.683,1.369C139.752,144.317,138.952,145.114,137.982,145.114z M137.698,137.468
				c2.852,0,5.306,1.942,6.049,4.51c0.456-1.256,1.199-2.339,2.169-3.196c-9.302-0.571-13.299-8.846-13.299-8.846l-0.227,10.442
				C133.474,138.667,135.414,137.468,137.698,137.468z M152.418,149.453c2.114,0,3.824-1.713,3.824-3.825
				c0-2.054-1.596-3.765-3.65-3.824l-0.855-0.055l0.681,0.514c0.516,0.399,0.803,1.027,0.803,1.71c0,1.199-0.972,2.172-2.172,2.172
				c-0.798,0-1.541-0.459-1.94-1.144l-0.399-0.741l-0.115,0.855l-0.057,0.514C148.596,147.682,150.309,149.453,152.418,149.453z
				 M189.114,176.385c-0.229-0.793-0.459-1.596-0.688-2.341c-1.424-5.131-2.508-9.125-7.019-8.734
				c-0.683,0.067-1.252,0.287-1.763,0.631l-4.515-2.852h-0.172l-0.339-1.084l-0.683,0.459c-1.429-0.917-3.024-1.71-4.625-2.456
				c5.136-6.106,7.931-16.889,5.991-34.521c-0.172-1.541-1.027-1.77-1.596-0.115c-0.454,1.426-3.483,10.444-19.058,12.955
				c2.054,1.314,3.421,3.593,3.421,6.218c0,4.109-3.311,7.42-7.415,7.42c-3.483,0-6.45-2.453-7.193-5.705
				c-0.968,2.279-3.194,3.877-5.819,3.877c-2.623,0-4.849-1.598-5.822-3.877c-0.057,0.112-0.112,0.227-0.17,0.282
				c-0.057-0.115-0.172-0.229-0.229-0.396c-3.082-4.226-7.988-5.936-11.015-3.77c-3.022,2.229-2.965,7.42,0.115,11.641
				c2.57,3.54,6.393,5.308,9.36,4.51c8.617,6.393,24.538,11.925,35.212,5.141c2.107,1.194,4.505,2.332,6.732,3.134v0.057
				l0.229,0.678l0.908-0.334l0.115,0.105l5.026,1.835c0.052,1.596,1.022,3.364,3.082,4.166c3.822,1.481,7.472,3.306,7.472,3.364
				l0.573,0.287L189.114,176.385z M120.063,146.653c0-1.823,1.257-3.306,2.74-3.306c1.541,0,2.74,1.483,2.74,3.306
				c0,1.83-1.254,3.311-2.74,3.311C121.263,149.964,120.063,148.483,120.063,146.653z M140.952,157.274
				c10.442,2.112,15.802,0.167,18.884-2.284c-0.793-1.089-2.222-2.226-2.222-2.226s3.65,1.022,4.964,2.685
				c0.568,0.736,0.745,1.366,0.683,1.992c-1.825-0.626-3.196-1.027-3.478-1.142c-1.142-0.516-2.226-0.172-2.513,0.683
				c-0.229,0.631-0.057,1.371,0.516,1.944C154.191,160.58,148.309,159.892,140.952,157.274z"/>
		</g>
	</g>
</g>
<g display="none">
	<title  stroke="null">Layer 1</title>
	<g id="svg_31" display="inline">
		<path id="svg_30" fill="#F34F29" d="M14.4,7.408L8.592,1.601c-0.334-0.334-0.876-0.334-1.211,0L6.175,2.807l1.53,1.53
			c0.356-0.12,0.762-0.04,1.047,0.244c0.284,0.285,0.364,0.696,0.242,1.053l1.473,1.474c0.357-0.123,0.769-0.043,1.054,0.242
			c0.398,0.398,0.398,1.043,0,1.442c-0.398,0.397-1.044,0.397-1.442,0c-0.299-0.3-0.372-0.74-0.221-1.109L8.482,6.307v3.619
			c0.097,0.048,0.189,0.111,0.27,0.192c0.396,0.397,0.396,1.043,0,1.441c-0.398,0.397-1.044,0.397-1.441,0
			c-0.398-0.398-0.398-1.043,0-1.441c0.098-0.099,0.212-0.173,0.333-0.222V6.244C7.522,6.194,7.409,6.121,7.311,6.022
			C7.009,5.72,6.936,5.277,7.091,4.907L5.582,3.399L1.601,7.381c-0.334,0.334-0.334,0.877,0,1.211L7.408,14.4
			c0.334,0.334,0.877,0.334,1.212,0l5.78-5.78C14.734,8.285,14.734,7.742,14.4,7.408z"/>
	</g>
</g>
<g display="none">
	<title  stroke="null">Layer 1</title>
	<g id="svg_48" display="inline">
		<g id="svg_45" transform="matrix(0.20370786789520598,0,0,0.20370786789520598,-27.936030503017168,-28.21668241452999) ">
			<path id="svg_46" fill="#FFFFFF" d="M176.407,145.229c-18.433,0-33.38,14.945-33.38,33.378c0,14.751,9.564,27.273,22.829,31.683
				c1.666,0.307,2.28-0.729,2.28-1.611c0-0.796-0.031-3.423-0.048-6.213c-9.286,2.013-11.247-3.941-11.247-3.941
				c-1.517-3.854-3.706-4.88-3.706-4.88c-3.027-2.071,0.23-2.033,0.23-2.033c3.351,0.24,5.115,3.442,5.115,3.442
				c2.977,5.101,7.812,3.624,9.715,2.771c0.3-2.157,1.165-3.624,2.121-4.468c-7.416-0.834-15.209-3.701-15.209-16.489
				c0-3.646,1.302-6.623,3.44-8.962c-0.348-0.837-1.491-4.233,0.321-8.833c0,0,2.804-0.899,9.18,3.421
				c2.665-0.738,5.523-1.11,8.358-1.124c2.836,0.014,5.698,0.386,8.363,1.124c6.371-4.319,9.166-3.421,9.166-3.421
				c1.822,4.595,0.681,7.992,0.331,8.833c2.138,2.339,3.442,5.316,3.442,8.962c0,12.817-7.814,15.645-15.245,16.469
				c1.194,1.036,2.263,3.068,2.263,6.184c0,4.468-0.034,8.054-0.034,9.156c0,0.892,0.594,1.927,2.287,1.601
				c13.255-4.42,22.809-16.923,22.809-31.673C209.789,160.174,194.842,145.229,176.407,145.229L176.407,145.229z"/>
			<path id="svg_47" fill="#FFFFFF" d="M155.668,193.157c-0.074,0.163-0.336,0.22-0.573,0.096c-0.242-0.105-0.376-0.336-0.3-0.489
				c0.072-0.173,0.336-0.221,0.575-0.105C155.616,192.764,155.752,192.994,155.668,193.157L155.668,193.157z M157.023,194.662
				c-0.161,0.153-0.472,0.086-0.683-0.153c-0.218-0.23-0.261-0.537-0.098-0.69c0.165-0.144,0.467-0.077,0.688,0.153
				c0.218,0.23,0.259,0.547,0.094,0.7V194.662z M158.339,196.589c-0.206,0.144-0.539,0.01-0.745-0.288s-0.206-0.661,0.005-0.796
				c0.206-0.144,0.535-0.019,0.745,0.288C158.547,196.081,158.547,196.445,158.339,196.589L158.339,196.589z M160.141,198.449
				c-0.182,0.201-0.573,0.144-0.858-0.134c-0.292-0.268-0.371-0.642-0.189-0.844c0.185-0.211,0.578-0.153,0.865,0.125
				c0.29,0.268,0.379,0.652,0.185,0.853H160.141z M162.629,199.523c-0.084,0.259-0.458,0.384-0.834,0.268
				c-0.376-0.115-0.626-0.422-0.549-0.681c0.079-0.269,0.455-0.384,0.837-0.269C162.461,198.957,162.708,199.255,162.629,199.523z
				 M165.359,199.724c0.012,0.278-0.309,0.508-0.707,0.508c-0.4,0.01-0.724-0.211-0.726-0.489c0-0.268,0.314-0.499,0.714-0.508
				C165.036,199.235,165.359,199.456,165.359,199.724L165.359,199.724z M167.905,199.293c0.046,0.268-0.23,0.547-0.626,0.623
				c-0.388,0.067-0.745-0.105-0.796-0.374c-0.048-0.268,0.235-0.547,0.621-0.614C167.5,198.861,167.852,199.025,167.905,199.293
				L167.905,199.293z"/>
		</g>
	</g>
</g>
<g display="none">
	<title  stroke="null">Layer 1</title>
	<g id="svg_59" display="inline">
		<path id="svg_58" fill="#E24329" d="M15.076,9.029l-0.795-2.447l-1.576-4.848c-0.061-0.188-0.275-0.233-0.412-0.139
			c-0.045,0.031-0.082,0.097-0.102,0.158l-1.576,4.867H5.384l-1.043-3.23L3.81,1.744C3.8,1.713,3.786,1.685,3.767,1.658
			c-0.009-0.012-0.02-0.022-0.03-0.032c-0.106-0.1-0.279-0.099-0.38,0.008c-0.028,0.029-0.05,0.062-0.062,0.101L1.719,6.583
			L1.386,7.608L0.924,9.029C0.868,9.203,0.904,9.395,1.02,9.537c0.029,0.036,0.062,0.069,0.101,0.097l6.879,4.998l6.879-4.998
			C15.068,9.496,15.148,9.251,15.076,9.029L15.076,9.029z"/>
	</g>
</g>
<g display="none">
	<title  stroke="null">Layer 1</title>
	<g id="svg_65" display="inline">
		<g id="svg_63" transform="matrix(0.18942220798806736,0,0,0.18942220798806736,8.131341524415364,7.1833282063433295) ">
			<path id="svg_64" fill="#FFFFFF" d="M26.017,4.858c-0.072-0.062-0.134-0.119-0.247-0.119l-0.062-0.067
				c-0.062-0.057-0.124-0.057-0.124-0.114l-0.062-0.067c-0.062,0-0.113-0.062-0.113-0.062l-0.124-0.057
				c-0.062,0-0.124-0.062-0.124-0.062L25.037,4.25c-0.052,0-0.113-0.057-0.113-0.057c-0.072,0-0.072,0-0.124-0.062l-0.186-0.062
				c-0.062,0-0.062,0-0.124-0.057l-0.175-0.062h-0.062l-0.247-0.062h-0.113c-0.062,0-0.124,0-0.186-0.062h-1.392
				c-0.361-8.053,0.361-16.229-1.691-23.983c7.805-2.784,1.691-13.502-5.094-8.718c-4.485-3.877-10.651-4.722-17.139-4.722
				c-6.357,0.423-12.353,1.753-16.59,5.083c-1.696-0.846-3.33-1.088-4.784-0.665v0.062c-0.062,0-0.18,0.062-0.242,0.119
				c-0.062,0-0.181,0.062-0.242,0.124h-0.062c-0.062,0-0.119,0.062-0.242,0.119h-0.062l-0.18,0.124h-0.062l-0.18,0.119h-0.062
				l-0.18,0.124c0,0-0.057,0-0.057,0.062l-0.186,0.119c0,0-0.057,0-0.057,0.062l-0.186,0.119c0,0-0.062,0-0.062,0.062l-0.18,0.119
				l-0.062,0.062c-0.057,0.062-0.119,0.062-0.119,0.124l-0.062,0.057l-0.119,0.124l-0.062,0.062
				c-0.062,0.057-0.062,0.119-0.124,0.119l-0.057,0.062c-0.062,0.062-0.062,0.124-0.124,0.124l-0.057,0.057
				c-0.062,0.062-0.062,0.124-0.124,0.124l-0.062,0.057c-0.057,0.062-0.057,0.124-0.119,0.124l-0.062,0.062
				c-0.062,0.057-0.062,0.119-0.124,0.119l-0.057,0.062l-0.062,0.18c0,0,0,0.062-0.062,0.062l-0.062,0.181c0,0,0,0.062-0.057,0.062
				l-0.062,0.18c0,0,0,0.062-0.062,0.062l-0.057,0.181c0,0,0,0.062-0.062,0.062c0.242,0.18,0.242,0.242,0.242,0.242v0.062
				l-0.062,0.18v0.062c0,0.057,0,0.119-0.062,0.18v1.877c0,0.062,0,0.124,0.062,0.18v0.062l0.062,0.181v0.062l0.057,0.18
				c0,0,0,0.062,0.062,0.062l0.062,0.181c0,0,0,0.062,0.062,0.062l0.057,0.18c0,0,0,0.062,0.062,0.062l0.124,0.181
				c0,0,0,0.062,0.062,0.062l0.119,0.18c0,0,0,0.062,0.062,0.062l0.119,0.181l0.062,0.062l0.18,0.18l0.18,0.18h0.062
				c0.608,0.547,1.212,0.969,2.423,1.335v-0.124c-2.542,7.63-0.423,15.327-0.304,23.194c-0.361,0-0.423,0.248-1.026,0.304h-0.304
				c-0.062,0-0.181,0-0.304,0.062c-0.062,0-0.18,0-0.242,0.062l-0.242,0.057h-0.062l-0.242,0.062h-0.057l-0.18,0.062h-0.062
				l-0.18,0.057c0,0-0.062,0-0.062,0.062L-26.5,4.559l-0.119,0.057c-0.062,0-0.124,0.057-0.124,0.057l-0.119,0.067l-0.119,0.057
				c-0.062,0-0.124,0.062-0.124,0.062l-0.119,0.062l-0.242,0.18c-0.062,0.062-0.124,0.118-0.186,0.118l-0.242,0.242l-0.057,0.062
				c-0.062,0.119-0.186,0.242-0.242,0.304l-0.124,0.18l-0.18,0.366l-0.062,0.18v0.18c0,0.299,0.124,0.546,0.547,0.727
				c0.119,2.243,2.361,1.212,3.392,0.485l0.062-0.062c0.119-0.119,0.299-0.18,0.361-0.18h0.062l0.119-0.062
				c0.062,0,0.062,0,0.124-0.062c0.119-0.057,0.242-0.057,0.299-0.119c0.062,0,0.062-0.062,0.062-0.119l0.062-0.062
				c0.062-0.119,0.119-0.366,0.119-0.727l0.062-0.789v1.088c-0.304,7.939-2.423,18.596,2,25.741
				c0.784,1.273,1.753,2.361,2.846,3.274h-0.304c-0.119,0.119-0.304,0.237-0.485,0.361l-0.547,0.361l-0.18,0.124l-0.361,0.237
				l-0.546,0.428l-0.665,0.603c-0.124,0.124-0.18,0.242-0.242,0.304l-0.242,0.366l-0.124,0.18c-0.057,0.119-0.119,0.242-0.119,0.361
				l-0.062,0.18c-0.119,0.49,0,1.031,0.366,1.639l0.242,0.242h0.119c0.062,0,0.119,0,0.242,0.057
				c0.119,0.247,0.727,1.516,2.361,0.546c1.696-0.907,2.846-2.784,4.908-3.088l-0.304-0.361c3.573,1.696,7.749,2.418,11.507,2.542
				c5.261,0.18,11.262-0.546,16.047-3.15c1.33,0.423,2.361,2.361,3.516,3.274l0.062,0.057l0.062,0.062l0.052,0.062l0.062,0.057
				c0,0,0.062,0,0.062,0.062c0,0,0.062,0,0.062,0.062c0,0,0.062,0,0.062,0.062h1.268c0,0,0.062,0,0.062-0.062H18.5
				c0,0,0.062,0,0.062-0.062h0.062c0,0,0.062,0,0.062-0.062c0,0,0.062,0,0.062-0.057l0.052-0.062c0,0,0.062,0,0.062-0.062
				l0.062-0.057h0.062l0.124-0.124l0.124-0.057h0.052l0.062-0.067h0.062l0.062-0.062l0.062-0.057l0.062-0.062l0.052-0.062
				l0.062-0.057l0.062-0.062l0.062-0.062v-0.057c0,0,0-0.062,0.062-0.062v-0.062c0,0,0-0.062,0.062-0.062v-0.057
				c0,0,0-0.062,0.062-0.062v-0.851c0,0-0.186,0-0.186-0.057l-0.186-0.062v-0.062l0.186-0.062c0,0,0.124,0,0.124-0.057l0.062-0.062
				v-1.273c0,0,0-0.057-0.062-0.057v-0.062c0,0,0-0.062-0.062-0.062v-0.062c0,0,0-0.057-0.062-0.057c0,0,0-0.067-0.062-0.067
				c0,0,0-0.057-0.062-0.057c0,0,0-0.057-0.062-0.057c0,0,0-0.067-0.052-0.067c0,0,0-0.062-0.062-0.062c0,0,0-0.057-0.062-0.057
				c0,0,0-0.062-0.062-0.062c0,0,0-0.062-0.062-0.062c0,0,0-0.057-0.062-0.057c0,0,0-0.062-0.052-0.062c0,0,0-0.062-0.062-0.062
				c0,0,0-0.057-0.062-0.057c0,0,0-0.062-0.062-0.062l-0.062-0.062l-0.062-0.062l-0.062-0.057l-0.062-0.062l-0.052-0.062
				l-0.062-0.062l-0.062-0.057l-0.062-0.062L18.5,35.925l-0.062-0.057l-0.062-0.067l-0.062-0.057v-0.062l-0.062-0.062l-0.052-0.062
				l-0.062-0.057l-0.062-0.062l-0.062-0.062l-0.062-0.057l-0.062-0.062l-0.062-0.062l-0.052-0.062l-0.062-0.057l-0.062-0.062
				l-0.062-0.062l-0.062-0.062l-0.062-0.057l-0.062-0.062l-0.052-0.062l-0.072-0.057l-0.062-0.067l-0.052-0.057
				c1.206-1.155,2.299-2.547,3.083-4.181c3.578-7.146,2.969-15.869,2.485-23.736H22.8c0.062,0,0.124,0.057,0.124,0.057h0.175
				c0,0,0.062,0,0.062,0.062h0.062c0,0,0.062,0,0.062,0.062l0.124,0.057c1.031,0.727,3.269,1.758,3.392-0.479
				C27.77,6.735,26.615,5.281,26.017,4.858z M-17.715-20.456c-1.938-9.692,13.564-11.507,14.111-2.062
				C-3.119-14.645-15.714-12.645-17.715-20.456z M4.147-11.372c-0.784,0.845-1.629,0.727-2.485,0.423
				c0,1.15,0.247,2.361,0.062,3.573C1.425-6.83,0.814-6.773,0.33-6.525c-0.727-0.124-1.268-0.546-1.572-1.211l-0.119-0.067
				c-2.361,3.155-3.82-0.66-3.15-3.026c-0.732,0.062-1.335-0.119-1.815-0.907c-0.851-1.573,0.418-3.511,2.057-3.815
				c0.418,1.82,5.264,1.578,6.117-0.118C3.724-14.764,5.776-13.068,4.147-11.372z M-0.093-21.971
				c-0.546-8.357,12.293-10.6,14.17-2.423C16.201-15.31,1.487-12.949-0.093-21.971z M-14.266-24.09c-1.15,0-2.119,1.031-2.119,2.299
				c0,1.273,0.969,2.304,2.119,2.304c1.155,0,2.119-1.031,2.119-2.304C-12.147-23.059-13.054-24.09-14.266-24.09z M0.876-18.522
				c-0.304,0-0.485-0.242-0.485-0.603c0-0.304,0.242-0.608,0.485-0.608c0.302,0,0.487,0.247,0.487,0.608
				C1.363-18.821,1.178-18.522,0.876-18.522z M3.539-24.636c-1.155,0-2.052,1.031-2.052,2.299c0,1.273,0.897,2.304,2.052,2.304
				s2.062-1.031,2.062-2.304C5.601-23.605,4.694-24.636,3.539-24.636z M1.848-15.125c-0.247,0-0.485-0.247-0.485-0.608
				c0-0.304,0.237-0.603,0.485-0.603c0.237,0,0.485,0.237,0.485,0.603C2.333-15.372,2.085-15.125,1.848-15.125z"/>
		</g>
	</g>
</g>
<g display="none">
	<title  stroke="null">Layer 1</title>
	<g id="svg_36" display="inline">
		<path id="svg_35" fill="#EB4A4B" d="M4.781,4.491C4.882,5.559,4.983,6.62,5.086,7.707c0.168-0.29,0.289-0.565,0.473-0.792
			c0.171-0.211,0.386-0.406,0.62-0.541c0.306-0.177,0.706-0.01,0.805,0.303C7.01,6.759,6.946,6.872,6.924,6.97
			C6.85,6.931,6.753,6.91,6.704,6.85C6.497,6.593,6.372,6.562,6.143,6.784C5.715,7.198,5.474,7.716,5.382,8.298
			C5.364,8.412,5.435,8.536,5.464,8.657c0.117-0.041,0.253-0.057,0.347-0.125C6.119,8.303,6.31,7.992,6.414,7.62
			c0.023-0.08,0.146-0.132,0.224-0.196C6.675,7.499,6.76,7.589,6.742,7.649C6.58,8.209,6.402,8.766,6.217,9.316
			C6.199,9.373,6.096,9.401,6.032,9.441c-0.025-0.072-0.08-0.15-0.071-0.219c0.02-0.157,0.07-0.311,0.105-0.455L5.228,9.154
			c0.047,0.535,0.095,1.135,0.152,1.731c0.044,0.459,0.119,0.578,0.57,0.664c0.526,0.101,1.061,0.165,1.595,0.205
			c0.79,0.059,1.571-0.014,2.343-0.221c0.283-0.076,0.398-0.264,0.418-0.546c0.019-0.257,0.061-0.515,0.089-0.772
			c0.058-0.509,0.114-1.016,0.173-1.545c-0.195,0.123-0.344,0.258-0.523,0.316c-0.129,0.042-0.291-0.021-0.44-0.034
			c0.03-0.138,0.028-0.29,0.093-0.403c0.106-0.187,0.258-0.349,0.391-0.522l-0.057-0.069c-0.095,0.056-0.214,0.093-0.28,0.172
			C9.614,8.292,9.479,8.466,9.39,8.653C9.235,8.969,9.12,9.303,8.98,9.627c-0.058,0.141-0.109,0.355-0.31,0.275
			c-0.213-0.089-0.062-0.277-0.012-0.41c0.078-0.214,0.184-0.419,0.255-0.576C8.713,8.942,8.506,8.971,8.302,8.989
			C8.215,8.995,8.112,8.948,8.04,8.98C7.804,9.088,7.654,9.043,7.604,8.781C7.495,8.855,7.402,8.95,7.293,8.977
			c-0.132,0.03-0.312,0.051-0.41-0.014c-0.079-0.055-0.106-0.254-0.08-0.37c0.054-0.231,0.152-0.457,0.246-0.678
			C7.107,7.778,7.165,7.56,7.362,7.654c0.193,0.095,0.018,0.252-0.027,0.38c-0.069,0.197-0.14,0.395-0.209,0.59l0.111,0.066
			c0.106-0.093,0.238-0.165,0.312-0.28c0.121-0.183,0.194-0.398,0.309-0.587c0.047-0.078,0.15-0.124,0.228-0.183
			C8.1,7.741,8.138,7.844,8.125,7.939c-0.012,0.098-0.08,0.186-0.113,0.283C7.963,8.365,7.923,8.514,7.873,8.679
			C8.11,8.689,8.21,8.591,8.277,8.416c0.21-0.555,0.424-1.109,0.657-1.654C8.974,6.668,9.109,6.615,9.2,6.543
			c0.01,0.112,0.061,0.24,0.024,0.336C9.035,7.382,8.821,7.875,8.62,8.375C8.586,8.458,8.574,8.553,8.555,8.641
			C8.907,8.482,9.202,8.306,9.31,7.93c0.026-0.092,0.135-0.159,0.205-0.239l0.163,0.174C9.729,7.823,9.775,7.776,9.83,7.742
			c0.169-0.111,0.352-0.208,0.531-0.037c0.185,0.175,0.044,0.345-0.053,0.498c-0.104,0.166-0.235,0.314-0.352,0.471
			c0.268-0.171,0.632-0.25,0.682-0.621c0.117-0.909,0.222-1.822,0.326-2.733c0.032-0.27,0.048-0.541,0.072-0.822
			C8.931,5.009,6.87,5.012,4.781,4.491L4.781,4.491z M5.685,11.588c0.102,0.27,0.256,0.531,0.296,0.812
			c0.085,0.596,0.107,1.199,0.167,1.799c0.009,0.088,0.065,0.207,0.136,0.247c1.039,0.563,2.087,0.662,3.147,0.044
			c0.159-0.09,0.187-0.213,0.207-0.384c0.101-0.831-0.121-1.712,0.41-2.495C8.562,11.98,7.111,11.99,5.685,11.588z M9.27,4.64
			c0.503-0.049,1.004-0.167,1.501-0.265c0.095-0.019,0.177-0.091,0.268-0.137c-0.116-0.103-0.22-0.152-0.324-0.164
			c-0.522-0.062-1.05-0.11-1.573-0.175c-0.078-0.01-0.22-0.107-0.214-0.125c0.153-0.46,0.145-0.982,0.492-1.37
			c0.438-0.491,0.881-0.977,1.321-1.463c-0.328-0.352-0.332-0.352-0.628-0.044C9.944,1.071,9.792,1.261,9.61,1.419
			C8.936,2.001,8.466,2.692,8.373,3.602C8.352,3.811,8.238,3.886,8.018,3.889C7.295,3.899,6.57,3.92,5.848,3.967
			c-0.357,0.023-0.71,0.115-1.067,0.176L4.778,4.276C5.001,4.345,5.22,4.435,5.446,4.479C6.712,4.722,7.99,4.763,9.27,4.64z
			 M8.866,4.322c-0.288,0.231-0.524,0.231-0.753,0H8.866z"/>
	</g>
</g>
<g display="none">
	<title  stroke="null">Layer 1</title>
	<g id="svg_41" display="inline">
		<path id="svg_40" fill="#6762A6" d="M12.393,0.835H3.594c-0.762,0-1.374,0.612-1.374,1.374v11.583
			c0,0.763,0.612,1.374,1.374,1.374h8.812c0.761,0,1.374-0.611,1.374-1.374V2.209C13.769,1.446,13.156,0.835,12.393,0.835z
			 M4.876,13.156V9.9l1.628,1.629L4.876,13.156z M10.996,13.191H9.484l0.011-0.023V7.463c0,0,0.357-1.363-4.584,0.554
			C4.899,8.041,4.888,2.74,4.888,2.74l1.605-0.011v3.395c0,0,4.503-1.779,4.503,1.351V13.191z M10.395,4.761H8.686
			C9.3,4.068,9.865,2.797,9.865,2.797h1.767C11.632,2.797,11.332,3.606,10.395,4.761z"/>
	</g>
</g>
<g display="none">
	<title  stroke="null">Layer 1</title>
	<g id="svg_15" display="inline">
		<path id="svg_14" fill="#0868AC" d="M8.143,12.798c-0.093-0.022-0.184-0.051-0.273-0.076L7.803,12.7
			c-0.088-0.028-0.176-0.056-0.263-0.087l-0.036-0.013c-0.079-0.026-0.155-0.054-0.231-0.085L7.206,12.49
			c-0.084-0.032-0.167-0.067-0.25-0.104l-0.05-0.021c-0.071-0.032-0.141-0.062-0.211-0.098l-0.061-0.03
			c-0.055-0.026-0.109-0.055-0.164-0.083c-0.037-0.02-0.073-0.037-0.109-0.056c-0.066-0.037-0.131-0.074-0.195-0.11L6.101,11.95
			c-0.086-0.051-0.171-0.103-0.255-0.156l-0.068-0.046c-0.062-0.039-0.122-0.08-0.182-0.119l-0.059-0.044
			c-0.058-0.038-0.115-0.08-0.171-0.123l-0.077-0.057c-0.052-0.041-0.103-0.08-0.154-0.121L5.067,11.23
			c-0.065-0.056-0.129-0.109-0.193-0.165l-0.021-0.019c-0.068-0.059-0.136-0.121-0.202-0.182l-0.056-0.057
			c-0.05-0.047-0.099-0.093-0.146-0.141l-0.056-0.059C4.33,10.546,4.27,10.485,4.212,10.42l-0.008-0.008
			c-0.062-0.067-0.123-0.137-0.181-0.206l-0.048-0.057c-0.044-0.054-0.087-0.106-0.13-0.162L3.797,9.929
			c-0.051-0.065-0.102-0.133-0.151-0.2c-1.357-1.852-1.845-4.406-0.76-6.503l-0.962,1.22c-1.233,1.771-1.08,4.076-0.138,5.958
			c0.022,0.046,0.046,0.089,0.069,0.135l0.044,0.084l0.028,0.048l0.049,0.09c0.03,0.049,0.059,0.101,0.09,0.153l0.051,0.085
			c0.035,0.054,0.069,0.108,0.104,0.162l0.044,0.07c0.049,0.07,0.1,0.145,0.151,0.217l0.004,0.006l0.025,0.033
			c0.045,0.062,0.092,0.123,0.138,0.184l0.052,0.065c0.042,0.054,0.084,0.105,0.127,0.156l0.049,0.059
			c0.058,0.067,0.117,0.136,0.177,0.201l0.004,0.004l0.007,0.009c0.059,0.063,0.119,0.126,0.18,0.189l0.058,0.059
			c0.047,0.047,0.095,0.095,0.144,0.141l0.059,0.057c0.064,0.061,0.13,0.121,0.197,0.18l0.003,0.002l0.034,0.028
			c0.059,0.052,0.119,0.103,0.179,0.151l0.074,0.059c0.05,0.042,0.1,0.081,0.149,0.118l0.08,0.061
			c0.056,0.04,0.111,0.08,0.167,0.119l0.061,0.044l0.017,0.012c0.053,0.037,0.108,0.072,0.163,0.107l0.07,0.047
			c0.084,0.053,0.169,0.104,0.255,0.156l0.07,0.039c0.063,0.037,0.127,0.074,0.191,0.108c0.035,0.018,0.071,0.036,0.106,0.055
			c0.045,0.023,0.09,0.047,0.137,0.071l0.032,0.015l0.056,0.026c0.072,0.034,0.144,0.069,0.217,0.102l0.045,0.02
			c0.083,0.037,0.168,0.072,0.252,0.104l0.062,0.025c0.079,0.03,0.159,0.059,0.239,0.087l0.03,0.012
			c0.088,0.03,0.176,0.058,0.266,0.086l0.064,0.021c0.09,0.027,0.181,0.061,0.274,0.077c5.961,1.087,7.691-3.583,7.691-3.583
			C13.171,12.855,10.588,13.355,8.143,12.798L8.143,12.798z M5.996,7.967c0.134,0.19,0.281,0.418,0.459,0.572
			c0.064,0.07,0.131,0.14,0.2,0.208l0.053,0.052c0.067,0.064,0.134,0.128,0.204,0.19L6.92,8.995l0.002,0.003
			C6.999,9.065,7.08,9.131,7.161,9.195l0.054,0.044C7.297,9.3,7.379,9.36,7.464,9.419l0.006,0.006
			c0.039,0.026,0.077,0.051,0.115,0.077L7.64,9.536C7.7,9.574,7.762,9.614,7.824,9.648l0.026,0.016
			c0.054,0.032,0.109,0.062,0.164,0.091l0.058,0.033C8.11,9.807,8.147,9.826,8.186,9.847l0.017,0.007
			c0.079,0.038,0.159,0.077,0.239,0.112l0.053,0.021c0.064,0.025,0.132,0.054,0.197,0.078l0.082,0.03
			c0.061,0.021,0.119,0.043,0.18,0.062l0.083,0.026c0.085,0.025,0.169,0.061,0.258,0.076c4.603,0.761,5.665-2.782,5.665-2.782
			c-0.959,1.379-2.813,2.038-4.791,1.524C10.08,8.98,9.993,8.954,9.907,8.927L9.831,8.902C9.768,8.881,9.707,8.861,9.646,8.84
			L9.564,8.81c-0.065-0.026-0.13-0.053-0.195-0.08L9.314,8.707c-0.08-0.036-0.16-0.073-0.239-0.111
			c-0.04-0.021-0.079-0.041-0.121-0.061L8.885,8.499c-0.05-0.027-0.102-0.057-0.151-0.086L8.696,8.392
			C8.633,8.355,8.574,8.318,8.513,8.279L8.457,8.242C8.416,8.216,8.376,8.189,8.338,8.164C8.252,8.105,8.17,8.043,8.088,7.981
			L8.032,7.937C7.166,7.253,6.479,6.318,6.153,5.258C5.811,4.16,5.885,2.925,6.478,1.924L5.749,2.952
			C4.858,4.235,4.907,5.951,5.602,7.308C5.718,7.536,5.85,7.757,5.996,7.967L5.996,7.967z M10.848,6.38
			c0.037,0.014,0.076,0.026,0.113,0.04l0.05,0.016c0.057,0.017,0.108,0.037,0.164,0.047c2.54,0.491,3.229-1.303,3.414-1.567
			c-0.603,0.869-1.618,1.077-2.862,0.775c-0.101-0.024-0.207-0.059-0.302-0.093c-0.122-0.043-0.241-0.093-0.357-0.149
			c-0.222-0.106-0.433-0.234-0.629-0.382C9.325,4.221,8.633,2.608,9.36,1.295L8.967,1.838C8.442,2.61,8.39,3.571,8.756,4.426
			C9.139,5.332,9.926,6.043,10.848,6.38z"/>
	</g>
</g>
<g display="none">
	<title>Layer 1</title>
	<g id="svg_62" display="inline">
		<path id="svg_60" fill="#F0DB4F" d="M0.847,0.847h14.305v14.306H0.847V0.847z"/>
		<path id="svg_61" fill="#323330" d="M13.983,11.74c-0.106-0.65-0.531-1.201-1.793-1.711c-0.437-0.201-0.925-0.345-1.07-0.678
			c-0.052-0.192-0.06-0.301-0.027-0.418c0.094-0.38,0.548-0.499,0.905-0.39c0.231,0.077,0.451,0.256,0.585,0.54
			c0.616-0.399,0.615-0.397,1.045-0.672c-0.157-0.244-0.241-0.357-0.345-0.461c-0.371-0.416-0.877-0.629-1.686-0.613l-0.422,0.054
			c-0.404,0.103-0.789,0.314-1.015,0.598c-0.677,0.77-0.484,2.113,0.34,2.668c0.812,0.608,2.004,0.747,2.157,1.316
			c0.147,0.698-0.514,0.923-1.171,0.844c-0.483-0.102-0.752-0.346-1.043-0.794c-0.536,0.311-0.536,0.311-1.087,0.626
			c0.13,0.286,0.268,0.414,0.486,0.663c1.037,1.051,3.629,0.999,4.095-0.592C13.957,12.668,14.082,12.303,13.983,11.74z
			 M8.624,7.422H7.286l-0.006,3.46c0,0.735,0.039,1.411-0.081,1.615c-0.196,0.407-0.703,0.358-0.934,0.279
			C6.03,12.66,5.91,12.495,5.771,12.264c-0.039-0.067-0.067-0.119-0.077-0.124l-1.088,0.669c0.182,0.369,0.448,0.692,0.79,0.902
			c0.51,0.306,1.195,0.399,1.912,0.234c0.467-0.136,0.869-0.417,1.08-0.846c0.305-0.562,0.239-1.241,0.236-1.993
			C8.631,9.879,8.624,8.652,8.624,7.422z"/>
	</g>
</g>
<g display="none">
	<title>Layer 1</title>
	<g id="svg_158" display="inline">
		<g id="svg_129" transform="matrix(0.4581519248551639,0,0,0.4581519248551639,11.971294861729424,11.953934529313573) ">
			<path id="svg_130" fill="#E9E9E0" d="M-3.175-24.837h-16.797c-0.467,0-0.847,0.378-0.847,1.115V6.996
				c0,0.2,0.38,0.582,0.847,0.582H3.224c0.467,0,0.846-0.382,0.846-0.582v-24.322c0-0.403-0.055-0.533-0.149-0.629l-6.736-6.733
				C-2.909-24.784-3.037-24.837-3.175-24.837z"/>
			<polygon id="svg_131" fill="#D9D7CA" points="-2.877,-24.75 -2.877,-17.892 3.982,-17.892 			"/>
			<path id="svg_132" fill="#9777A8" d="M3.224,7.578h-23.196c-0.467,0-0.847-0.382-0.847-0.846v-8.995H4.07v8.995
				C4.07,7.196,3.69,7.578,3.224,7.578z"/>
			<g id="svg_133">
				<path id="svg_134" fill="#FFFFFF" d="M-14.729-0.108v4.54c0,0.275-0.052,0.507-0.15,0.693c-0.1,0.185-0.236,0.337-0.404,0.45
					c-0.171,0.113-0.362,0.192-0.582,0.237c-0.218,0.047-0.444,0.068-0.677,0.068c-0.116,0-0.253-0.013-0.407-0.034
					c-0.156-0.023-0.318-0.062-0.483-0.113c-0.166-0.051-0.326-0.107-0.479-0.168c-0.155-0.064-0.282-0.136-0.389-0.215l0.404-0.639
					c0.053,0.036,0.128,0.075,0.226,0.115c0.098,0.038,0.205,0.075,0.321,0.111c0.116,0.032,0.238,0.064,0.365,0.089
					s0.245,0.041,0.355,0.041c0.28,0,0.503-0.055,0.669-0.164c0.166-0.107,0.253-0.29,0.264-0.548V-0.11h0.967V-0.108z"/>
				<path id="svg_135" fill="#FFFFFF" d="M-10.006,4.24c0,0.213-0.043,0.418-0.13,0.614c-0.088,0.198-0.209,0.373-0.368,0.522
					c-0.16,0.151-0.354,0.271-0.586,0.36c-0.233,0.092-0.495,0.136-0.792,0.136c-0.126,0-0.256-0.009-0.391-0.019
					c-0.135-0.015-0.271-0.038-0.408-0.07c-0.138-0.03-0.268-0.075-0.392-0.13c-0.123-0.053-0.229-0.124-0.32-0.203l0.166-0.68
					c0.074,0.043,0.167,0.083,0.28,0.124c0.114,0.038,0.23,0.077,0.352,0.109c0.122,0.036,0.243,0.064,0.365,0.083
					c0.122,0.026,0.234,0.034,0.341,0.034c0.322,0,0.569-0.077,0.74-0.226c0.172-0.151,0.257-0.375,0.257-0.669
					c0-0.177-0.06-0.335-0.182-0.46c-0.123-0.124-0.274-0.239-0.455-0.343c-0.181-0.104-0.378-0.205-0.589-0.307
					c-0.211-0.104-0.409-0.226-0.594-0.364s-0.337-0.307-0.459-0.497c-0.12-0.19-0.182-0.426-0.182-0.71
					c0-0.258,0.049-0.488,0.143-0.688c0.096-0.2,0.224-0.371,0.385-0.509c0.16-0.141,0.349-0.247,0.562-0.322
					c0.214-0.072,0.439-0.113,0.676-0.113c0.244,0,0.488,0.023,0.736,0.068c0.248,0.045,0.449,0.119,0.602,0.217
					c-0.033,0.068-0.068,0.143-0.112,0.228c-0.041,0.081-0.081,0.156-0.118,0.228c-0.036,0.072-0.067,0.132-0.095,0.179
					c-0.027,0.047-0.042,0.072-0.047,0.079c-0.032-0.017-0.068-0.036-0.108-0.064c-0.039-0.026-0.097-0.053-0.169-0.079
					c-0.074-0.026-0.172-0.043-0.293-0.055c-0.121-0.008-0.278-0.006-0.467,0.006c-0.108,0.013-0.206,0.045-0.302,0.092
					c-0.096,0.051-0.179,0.111-0.254,0.188c-0.074,0.072-0.131,0.158-0.175,0.247c-0.042,0.094-0.062,0.181-0.062,0.269
					c0,0.209,0.06,0.379,0.182,0.509c0.12,0.128,0.271,0.241,0.45,0.339c0.179,0.098,0.375,0.194,0.585,0.283
					c0.212,0.094,0.407,0.205,0.59,0.339c0.182,0.132,0.334,0.296,0.455,0.495C-10.069,3.675-10.006,3.929-10.006,4.24z"/>
				<path id="svg_136" fill="#FFFFFF" d="M-4.275,2.897c0,0.49-0.062,0.923-0.188,1.296c-0.124,0.375-0.294,0.689-0.514,0.934
					c-0.22,0.249-0.473,0.437-0.767,0.561C-6.038,5.82-6.358,5.879-6.705,5.879c-0.347,0-0.669-0.06-0.961-0.192
					c-0.293-0.124-0.549-0.311-0.768-0.561c-0.217-0.245-0.391-0.558-0.514-0.934C-9.072,3.82-9.135,3.387-9.135,2.897
					c0-0.492,0.063-0.923,0.187-1.294c0.123-0.371,0.296-0.684,0.514-0.931c0.22-0.247,0.475-0.437,0.768-0.565
					c0.292-0.13,0.614-0.196,0.961-0.196c0.347,0,0.667,0.066,0.961,0.196c0.294,0.128,0.548,0.318,0.767,0.565
					c0.22,0.249,0.39,0.561,0.514,0.931C-4.337,1.974-4.275,2.405-4.275,2.897z M-6.729,5.103c0.194,0,0.382-0.036,0.558-0.113
					c0.177-0.077,0.337-0.203,0.473-0.375c0.139-0.175,0.249-0.403,0.326-0.686c0.081-0.281,0.124-0.627,0.13-1.032
					c-0.006-0.394-0.045-0.733-0.121-1.01c-0.077-0.275-0.183-0.505-0.32-0.684c-0.132-0.179-0.286-0.309-0.46-0.388
					c-0.171-0.079-0.35-0.119-0.537-0.119c-0.196,0-0.384,0.038-0.561,0.111c-0.177,0.077-0.335,0.2-0.475,0.377
					C-7.856,1.36-7.963,1.591-8.043,1.868c-0.08,0.281-0.121,0.62-0.127,1.029c0.005,0.394,0.047,0.731,0.123,1.013
					c0.077,0.279,0.181,0.505,0.319,0.684c0.132,0.177,0.286,0.305,0.456,0.386C-7.099,5.065-6.918,5.103-6.729,5.103z"/>
				<path id="svg_137" fill="#FFFFFF" d="M1.28,0.007v5.832H0.314l-2.287-4.018v4.018h-0.963V0.007h0.963l2.287,4.022V0.007H1.28z"
					/>
			</g>
			<g id="svg_138">
				<path id="svg_139" fill="#9777A8" d="M-13.295-13.84v-2.316c0-0.318,0.259-0.58,0.578-0.58c0.322,0,0.58-0.258,0.58-0.578
					c0-0.319-0.258-0.579-0.58-0.579c-0.956,0-1.736,0.778-1.736,1.736v2.316c0,0.637-0.518,1.157-1.157,1.157
					c-0.32,0-0.58,0.259-0.58,0.579c0,0.321,0.26,0.581,0.58,0.581c0.639,0,1.157,0.518,1.157,1.156v2.314
					c0,0.957,0.78,1.737,1.736,1.737c0.322,0,0.58-0.258,0.58-0.578c0-0.32-0.258-0.58-0.58-0.58c-0.319,0-0.578-0.26-0.578-0.58
					v-2.314c0-0.696-0.314-1.312-0.799-1.737C-13.609-12.529-13.295-13.145-13.295-13.84z"/>
				<circle id="svg_140" fill="#9777A8" cx="-8.665" cy="-14.129" r="0.867"/>
				<path id="svg_141" fill="#9777A8" d="M-1.719-12.682c-0.639,0-1.157-0.52-1.157-1.157v-2.316c0-0.958-0.778-1.736-1.737-1.736
					c-0.318,0-0.578,0.26-0.578,0.579c0,0.32,0.26,0.578,0.578,0.578c0.322,0,0.58,0.262,0.58,0.58v2.316
					c0,0.695,0.315,1.311,0.799,1.736c-0.484,0.425-0.799,1.041-0.799,1.737v2.314c0,0.32-0.258,0.58-0.58,0.58
					c-0.318,0-0.578,0.26-0.578,0.58c0,0.32,0.26,0.578,0.578,0.578c0.959,0,1.737-0.78,1.737-1.737v-2.314
					c0-0.638,0.518-1.156,1.157-1.156c0.32,0,0.582-0.26,0.582-0.581C-1.138-12.423-1.4-12.682-1.719-12.682z"/>
				<path id="svg_142" fill="#9777A8" d="M-8.665-10.945c-0.32,0-0.579,0.259-0.579,0.579v1.736c0,0.319,0.259,0.578,0.579,0.578
					c0.32,0,0.58-0.259,0.58-0.578v-1.736C-8.085-10.686-8.345-10.945-8.665-10.945z"/>
			</g>
		</g>
		<g id="svg_143" transform="matrix(0.4581519248551639,0,0,0.4581519248551639,11.971294861729424,11.953934529313573) ">
		</g>
		<g id="svg_144" transform="matrix(0.4581519248551639,0,0,0.4581519248551639,11.971294861729424,11.953934529313573) ">
		</g>
		<g id="svg_145" transform="matrix(0.4581519248551639,0,0,0.4581519248551639,11.971294861729424,11.953934529313573) ">
		</g>
		<g id="svg_146" transform="matrix(0.4581519248551639,0,0,0.4581519248551639,11.971294861729424,11.953934529313573) ">
		</g>
		<g id="svg_147" transform="matrix(0.4581519248551639,0,0,0.4581519248551639,11.971294861729424,11.953934529313573) ">
		</g>
		<g id="svg_148" transform="matrix(0.4581519248551639,0,0,0.4581519248551639,11.971294861729424,11.953934529313573) ">
		</g>
		<g id="svg_149" transform="matrix(0.4581519248551639,0,0,0.4581519248551639,11.971294861729424,11.953934529313573) ">
		</g>
		<g id="svg_150" transform="matrix(0.4581519248551639,0,0,0.4581519248551639,11.971294861729424,11.953934529313573) ">
		</g>
		<g id="svg_151" transform="matrix(0.4581519248551639,0,0,0.4581519248551639,11.971294861729424,11.953934529313573) ">
		</g>
		<g id="svg_152" transform="matrix(0.4581519248551639,0,0,0.4581519248551639,11.971294861729424,11.953934529313573) ">
		</g>
		<g id="svg_153" transform="matrix(0.4581519248551639,0,0,0.4581519248551639,11.971294861729424,11.953934529313573) ">
		</g>
		<g id="svg_154" transform="matrix(0.4581519248551639,0,0,0.4581519248551639,11.971294861729424,11.953934529313573) ">
		</g>
		<g id="svg_155" transform="matrix(0.4581519248551639,0,0,0.4581519248551639,11.971294861729424,11.953934529313573) ">
		</g>
		<g id="svg_156" transform="matrix(0.4581519248551639,0,0,0.4581519248551639,11.971294861729424,11.953934529313573) ">
		</g>
		<g id="svg_157" transform="matrix(0.4581519248551639,0,0,0.4581519248551639,11.971294861729424,11.953934529313573) ">
		</g>
	</g>
</g>
<g display="none">
	<title  stroke="null">Layer 1</title>
	<g id="svg_5_1_" display="inline">
		<path id="svg_4_1_" fill="#0081C2" d="M14.759,4.181c-0.6-0.297-1.195-0.601-1.803-0.887c-1.183-0.555-2.329-1.188-3.519-1.73
			C9.051,1.386,8.678,1.183,8.3,0.986C8.174,0.92,8.06,0.92,7.932,0.985C7.44,1.236,6.941,1.473,6.445,1.712
			c-1.178,0.569-2.367,1.182-3.55,1.74C2.379,3.695,1.808,3.955,1.34,4.202v7.789c0,0.005,0.077,0.005,0.092,0.012
			c0.374,0.184,0.766,0.364,1.136,0.555c0.376,0.193,0.771,0.371,1.154,0.554c1.188,0.566,2.365,1.168,3.544,1.755
			c0.228,0.112,0.464,0.213,0.689,0.332c0.113,0.063,0.201,0.057,0.317,0.002c0.352-0.168,0.706-0.334,1.057-0.507
			c1.358-0.663,2.695-1.354,4.062-2.002c0.476-0.224,0.833-0.47,1.42-0.713V4.194C14.694,4.188,14.774,4.189,14.759,4.181
			L14.759,4.181z M13.009,11.379c-0.281,0.296-0.614,0.519-0.977,0.698c-0.092,0.045-0.185,0.098-0.282,0.112
			c-0.151,0.022-0.204,0.143-0.272,0.24c-0.12,0.167-0.407,0.34-0.607,0.342c-0.055,0.001-0.11-0.003-0.164,0.001
			c-0.216,0.019-0.413-0.036-0.606-0.133c-0.266-0.134-0.554-0.155-0.85-0.147c-0.156,0.004-0.291,0.04-0.421,0.115
			c-0.175,0.101-0.268,0.327-0.231,0.515c0.011,0.047-0.034,0.104-0.064,0.181c-0.064-0.054-0.134-0.084-0.137-0.121
			c-0.02-0.24-0.034-0.487,0.136-0.683c0.229-0.27,0.531-0.417,0.888-0.442c0.092-0.007,0.184,0.002,0.276-0.001
			c0.222-0.007,0.431,0.033,0.647,0.095c0.179,0.049,0.391,0.06,0.569-0.055c0.064-0.238-0.062-0.411-0.234-0.522
			c-0.184-0.119-0.368-0.242-0.595-0.295c-0.161-0.039-0.304-0.151-0.462-0.21c-0.159-0.06-0.317-0.125-0.476-0.183
			c-0.152-0.055-0.324-0.052-0.461-0.152c-0.251,0.013-0.494-0.1-0.747-0.053c-0.329,0.061-0.661,0.115-0.974,0.241
			c-0.235,0.097-0.474,0.184-0.7,0.305c-0.134,0.072-0.286,0.106-0.424,0.171c-0.108,0.05-0.213,0.114-0.308,0.187
			c-0.161,0.127-0.269,0.285-0.218,0.51c0.199,0.092,0.399,0.104,0.612,0.032c0.231-0.077,0.474-0.061,0.715-0.074
			c0.303-0.019,0.569,0.076,0.814,0.229c0.232,0.146,0.392,0.353,0.383,0.65c-0.001,0.062,0.009,0.131-0.002,0.191
			c-0.011,0.055-0.048,0.104-0.086,0.183c-0.076-0.079-0.199-0.1-0.086-0.219c-0.073-0.133-0.031-0.316-0.175-0.414
			c-0.127-0.089-0.252-0.185-0.422-0.176c-0.101,0.006-0.204,0.009-0.303-0.001c-0.237-0.021-0.449,0.058-0.649,0.162
			c-0.277,0.142-0.57,0.109-0.862,0.114c-0.164-0.092-0.36-0.135-0.483-0.291c-0.063-0.079-0.09-0.22-0.165-0.248
			c-0.096-0.034-0.185-0.101-0.28-0.116c-0.243-0.038-0.412-0.207-0.613-0.317c-0.168-0.09-0.303-0.247-0.447-0.383
			c-0.157-0.146-0.238-0.331-0.274-0.545c-0.054-0.32,0.07-0.616,0.241-0.795c0.225-0.237,0.505-0.358,0.808-0.472
			C3.965,9.46,3.909,9.294,3.808,9.164c-0.095-0.128-0.105-0.275-0.143-0.41c-0.044-0.151-0.04-0.335-0.002-0.49
			c0.038-0.153,0.131-0.296,0.226-0.426c0.085-0.117,0.2-0.216,0.31-0.313c0.035-0.031,0.094-0.034,0.139-0.05
			c0.06,0.085,0.041,0.142-0.018,0.202C4.258,7.74,4.206,7.813,4.15,7.881C3.992,8.074,4.042,8.305,4.043,8.524
			c0.002,0.14,0.085,0.257,0.167,0.37c0.154,0.217,0.312,0.421,0.574,0.527c0.142,0.058,0.274,0.107,0.427,0.103
			c0.136-0.005,0.272,0,0.476,0C5.569,9.47,5.507,9.443,5.448,9.415C5.029,9.221,4.811,8.891,4.811,8.449
			c0-0.155,0.015-0.313-0.005-0.466C4.789,7.852,4.867,7.744,4.869,7.62c0.005-0.111-0.051-0.238,0.052-0.335
			C4.893,7.072,4.974,6.853,4.879,6.641C4.829,6.53,4.87,6.406,4.82,6.28C4.725,6.038,4.656,5.803,4.343,5.772
			C4.309,5.77,4.281,5.715,4.251,5.686c0.055-0.119,0.11-0.143,0.235-0.104c0.318,0.102,0.507,0.315,0.66,0.597
			C5.31,6.484,5.365,6.807,5.425,7.14c0.061,0.334,0.027,0.666,0.05,0.996c0.007,0.111,0.036,0.222,0.07,0.327
			C5.579,8.568,5.641,8.628,5.747,8.64c0.154,0.016,0.278,0.005,0.395-0.138V8.224C6.025,8.168,6.033,8.023,5.87,8.029
			C5.808,8.03,5.787,7.939,5.789,7.855C5.796,7.617,5.813,7.377,5.794,7.14C5.77,6.885,5.832,6.638,5.87,6.394
			c0.033-0.214,0.059-0.44,0.146-0.652c0.081-0.195,0.098-0.417,0.177-0.615C6.336,4.763,6.499,4.409,6.702,4.07
			C6.817,3.877,6.972,3.711,7.07,3.508c0.007-0.015,0.017-0.03,0.028-0.042c0.142-0.162,0.277-0.331,0.43-0.482
			c0.184-0.181,0.383-0.347,0.583-0.527C8.322,2.643,8.54,2.804,8.72,3.001c0.484,0.536,0.909,1.12,1.184,1.793
			c0.127,0.313,0.249,0.632,0.312,0.973c0.058,0.308,0.119,0.612,0.171,0.923c0.065,0.399,0.012,0.794,0.045,1.189
			c0.006,0.078-0.063,0.152-0.105,0.149c-0.164-0.013-0.201,0.135-0.319,0.195v0.28c0.118,0.108,0.234,0.146,0.379,0.141
			c0.173-0.005,0.269-0.099,0.314-0.277c0.052-0.197,0.067-0.39,0.05-0.583c-0.024-0.282,0.033-0.558,0.072-0.83
			c0.044-0.319,0.153-0.629,0.322-0.911c0.11-0.188,0.445-0.445,0.643-0.484c0.086-0.017,0.157,0.013,0.19,0.133
			c-0.034,0.025-0.07,0.078-0.112,0.082c-0.277,0.027-0.359,0.243-0.441,0.454c-0.045,0.112-0.036,0.248-0.068,0.358
			c-0.058,0.189-0.041,0.372-0.041,0.559c0,0.11,0.031,0.224,0.05,0.334c0.02,0.103-0.043,0.216,0.051,0.312
			c0.023,0.022,0.004,0.088,0.004,0.132c0.002,0.175-0.003,0.35,0.002,0.524c0.011,0.437-0.292,0.922-0.821,1.053
			c0.328,0.028,0.648,0.056,0.959-0.134c0.303-0.187,0.463-0.47,0.633-0.757c0.004-0.328,0.048-0.671-0.258-0.911
			C11.868,7.647,11.85,7.587,11.87,7.48c0.059,0.009,0.117-0.001,0.14,0.023c0.168,0.182,0.392,0.319,0.471,0.574
			c0.024,0.072,0.094,0.14,0.09,0.208c-0.007,0.179,0.029,0.354-0.024,0.537C12.505,8.963,12.46,9.1,12.397,9.23
			c-0.058,0.122-0.138,0.237-0.21,0.36c0.103,0.052,0.202,0.118,0.312,0.15c0.233,0.069,0.392,0.229,0.554,0.396
			c0.158,0.165,0.18,0.385,0.24,0.588C13.208,10.946,13.188,11.193,13.009,11.379L13.009,11.379z M4.441,10.459
			c-0.09,0.007-0.183-0.004-0.274,0.002c-0.148,0.011-0.285,0.062-0.406,0.146c-0.122,0.082-0.131,0.157-0.074,0.299
			c0.058,0.14,0.144,0.256,0.252,0.366c0.193,0.19,0.395,0.368,0.633,0.503c0.085-0.471,0.348-0.812,0.749-1.063
			c-0.071-0.034-0.125-0.058-0.176-0.087C4.926,10.501,4.695,10.435,4.441,10.459L4.441,10.459z M21.133,11.805
			c0.039-0.101,0.013-0.185-0.072-0.261l0,0c-0.066-0.061-0.326-0.162-0.428-0.164c-0.127-0.001-0.257,0.009-0.384-0.001
			c-0.191-0.018-0.358,0.058-0.526,0.129c-0.076,0.033-0.151,0.076-0.242,0.124c0.401,0.251,0.663,0.592,0.75,1.071
			c0.106-0.074,0.215-0.141,0.31-0.225 M-0.771,7.816C-0.896,7.82-0.933,7.872-0.927,8.038c0.005,0.126,0.059,0.175,0.185,0.164
			c0.103-0.007,0.212-0.12,0.2-0.206C-0.553,7.905-0.67,7.813-0.771,7.816z M22.737,11.544c-0.117-0.006-0.241,0.1-0.234,0.199
			c0.006,0.091,0.118,0.186,0.223,0.186c0.123,0,0.161-0.046,0.162-0.187C22.889,11.596,22.854,11.549,22.737,11.544L22.737,11.544z
			"/>
	</g>
</g>
<g display="none">
	<title>Layer 1</title>
	<g id="svg_13" display="inline">
		<path id="svg_12_1_" fill="#1ABC9C" d="M13.674,11.774c-0.735-0.02-1.297,0.049-1.776,0.25c-0.137,0.059-0.354,0.059-0.377,0.23
			c0.074,0.078,0.086,0.197,0.146,0.293c0.115,0.186,0.31,0.434,0.481,0.564c0.188,0.143,0.383,0.295,0.586,0.418
			c0.359,0.221,0.762,0.344,1.107,0.564c0.204,0.129,0.406,0.293,0.606,0.439c0.098,0.072,0.164,0.184,0.292,0.23v-0.021
			c-0.066-0.086-0.084-0.203-0.146-0.293l-0.272-0.271c-0.265-0.354-0.603-0.664-0.961-0.92c-0.286-0.205-0.927-0.482-1.045-0.816
			l-0.021-0.02c0.202-0.023,0.439-0.098,0.627-0.146c0.313-0.086,0.596-0.062,0.92-0.146l0.439-0.125V11.92
			c-0.164-0.168-0.281-0.391-0.461-0.545c-0.468-0.396-0.979-0.795-1.504-1.127c-0.293-0.184-0.653-0.305-0.963-0.461
			c-0.104-0.053-0.286-0.08-0.354-0.168c-0.162-0.206-0.251-0.469-0.377-0.709c-0.262-0.506-0.52-1.057-0.752-1.589
			C9.71,6.959,9.606,6.601,9.408,6.276C8.46,4.715,7.438,3.773,5.855,2.848C5.518,2.65,5.113,2.573,4.685,2.471
			c-0.23-0.014-0.46-0.028-0.689-0.042c-0.141-0.058-0.287-0.23-0.418-0.313C3.053,1.784,1.707,1.064,1.319,2.012
			C1.074,2.609,1.685,3.193,1.904,3.496c0.154,0.212,0.351,0.45,0.46,0.689c0.072,0.158,0.084,0.315,0.146,0.482
			c0.151,0.409,0.284,0.854,0.48,1.231C3.09,6.091,3.2,6.293,3.326,6.464c0.076,0.105,0.209,0.151,0.229,0.313
			c-0.129,0.181-0.136,0.461-0.208,0.69c-0.328,1.03-0.204,2.311,0.271,3.074c0.146,0.232,0.489,0.734,0.961,0.543
			c0.414-0.168,0.321-0.691,0.439-1.15c0.027-0.104,0.01-0.18,0.063-0.251v0.021l0.376,0.754c0.279,0.447,0.773,0.916,1.192,1.232
			c0.217,0.164,0.388,0.447,0.668,0.543v-0.021H7.298c-0.055-0.084-0.14-0.119-0.209-0.188c-0.164-0.16-0.346-0.357-0.481-0.543
			c-0.381-0.516-0.717-1.082-1.024-1.672C5.437,9.528,5.31,9.217,5.186,8.93C5.139,8.821,5.139,8.654,5.04,8.596
			c-0.135,0.209-0.334,0.38-0.438,0.627C4.434,9.62,4.412,10.102,4.35,10.604c-0.036,0.012-0.02,0.004-0.042,0.021
			c-0.292-0.072-0.394-0.371-0.502-0.629c-0.273-0.65-0.324-1.697-0.083-2.446c0.062-0.193,0.344-0.803,0.23-0.983
			C3.899,6.39,3.719,6.287,3.619,6.15C3.494,5.982,3.37,5.76,3.284,5.565C3.06,5.058,2.956,4.489,2.72,3.977
			C2.607,3.732,2.416,3.483,2.26,3.266C2.086,3.025,1.893,2.847,1.758,2.554C1.71,2.451,1.645,2.286,1.716,2.178
			C1.738,2.106,1.77,2.076,1.841,2.052C1.963,1.96,2.301,2.085,2.427,2.137c0.335,0.139,0.615,0.272,0.899,0.46
			C3.462,2.688,3.6,2.862,3.765,2.911h0.188c0.294,0.067,0.624,0.02,0.899,0.104c0.485,0.147,0.921,0.377,1.317,0.627
			c1.204,0.761,2.19,1.844,2.864,3.136c0.107,0.208,0.156,0.406,0.251,0.627C9.476,7.85,9.719,8.308,9.91,8.743
			c0.191,0.434,0.378,0.872,0.649,1.232c0.142,0.189,0.69,0.293,0.94,0.398c0.174,0.074,0.461,0.15,0.627,0.252
			c0.315,0.189,0.622,0.416,0.92,0.625C13.194,11.356,13.65,11.585,13.674,11.774L13.674,11.774z M4.329,3.81
			C4.176,3.806,4.067,3.826,3.953,3.852v0.02h0.021c0.073,0.151,0.203,0.248,0.292,0.377c0.07,0.146,0.14,0.292,0.209,0.438
			l0.021-0.02c0.13-0.092,0.189-0.237,0.188-0.46C4.632,4.152,4.625,4.084,4.58,4.019C4.52,3.932,4.405,3.882,4.329,3.81L4.329,3.81
			z"/>
	</g>
</g>
<g display="none">
	<title  stroke="null">Layer 1</title>
	<g id="svg_162" display="inline">
		<g id="svg_160" transform="matrix(0.16808852193074353,0,0,0.16808852193074353,12.860459951158045,12.972265925512817) ">
			<path id="svg_161" fill="#3D3B47" d="M-16.431-30.833c-0.395-0.688-1.145-1.2-1.999-1.2h-0.168c-1.319,0-2.341,1.028-2.452,2.28
				c-0.058,0.517,0.058,0.967,0.343,1.429c0.395,0.68,1.139,1.191,1.999,1.191h0.163c1.307,0,2.394-1.028,2.458-2.274
				C-16.042-29.927-16.152-30.38-16.431-30.833z M-18.598-28.724c-0.459-0.061-0.854-0.465-0.802-0.915
				c0.07-0.456,0.459-0.857,0.912-0.796c0.453,0.055,0.86,0.456,0.79,0.912C-17.698-29.07-18.151-28.672-18.598-28.724z
				 M11.16-49.308l-27.486-15.849c-1.191-0.686-3.184-0.686-4.381,0l-27.541,15.849c-1.194,0.686-2.222,2.394-2.222,3.82v31.753
				c0,1.429,0.97,3.137,2.222,3.829L-20.765,5.99c1.197,0.691,3.19,0.691,4.392,0L11.096-9.906c1.203-0.691,2.231-2.399,2.231-3.829
				v-31.753C13.385-46.854,12.356-48.567,11.16-49.308z M-73.388,5.774l22.519-17.174v0.064c-0.517,0.558-0.854,1.319-0.912,2.097
				c-0.058,0.691,0.113,1.383,0.459,2.004c0.569,1.034,1.595,1.656,2.792,1.714h0.227c0.285,0,0.514-0.058,0.741-0.128
				L-73.388,5.774z M-48.304-6.385h-0.171c-0.851-0.041-1.656-0.505-2.109-1.301c-0.285-0.465-0.398-0.97-0.34-1.481
				c0.113-1.371,1.252-2.446,2.62-2.446h0.171c0.857,0.041,1.656,0.563,2.109,1.29c0.285,0.476,0.401,0.988,0.343,1.493
				C-45.794-7.472-46.93-6.385-48.304-6.385z M-45.794-6.612c0.572-0.575,0.912-1.313,0.967-2.173
				c0.058-0.68-0.116-1.359-0.456-1.993c-0.569-1.011-1.647-1.644-2.794-1.702c-0.337,0-0.741,0-1.083,0.105l26.106-10.998
				L-45.794-6.612z"/>
		</g>
	</g>
</g>
<g display="none">
	<title>Layer 1</title>
	<g id="svg_8" display="inline">
		<g id="svg_4_2_" transform="matrix(0.20033479868920356,0,0,0.20033479868920356,-0.13348226191716206,-3.2620538224949294) ">
			<path id="svg_5_2_" fill="#3498DB" d="M71.353,36.216L42.905,19.803c-0.658-0.353-1.479-0.531-2.303-0.531
				c-0.826,0-1.653,0.178-2.301,0.531L9.847,36.216c-1.299,0.765-2.303,2.532-2.303,3.951v32.884c0,1.467,1.004,3.242,2.303,3.948
				l28.453,16.476c0.648,0.356,1.475,0.531,2.301,0.531c0.824,0,1.645-0.176,2.303-0.531l28.448-16.476
				c1.238-0.707,2.306-2.481,2.306-3.948V40.166C73.659,38.748,72.655,36.981,71.353,36.216z M71.885,73.109
				c0,0.819-0.712,2.004-1.414,2.423L42.02,91.994c-0.356,0.18-0.89,0.292-1.418,0.292c-0.531,0-1.065-0.112-1.419-0.292
				L10.734,75.532c-0.712-0.419-1.418-1.604-1.418-2.423V40.166c0-0.824,0.707-2.006,1.418-2.418l28.448-16.411
				c0.353-0.178,0.887-0.295,1.419-0.295c0.529,0,1.063,0.117,1.418,0.295l28.451,16.411c0.702,0.412,1.414,1.594,1.414,2.418
				V73.109z M42.963,55.283c-0.473-0.773-1.241-1.419-2.184-1.479l-0.178-0.117c-1.419,0-2.596,1.241-2.713,2.659
				c-0.061,0.531,0.056,1.116,0.351,1.594c0.473,0.765,1.241,1.297,2.184,1.355h0.178c1.418,0,2.596-1.126,2.718-2.542
				C43.319,56.284,43.197,55.751,42.963,55.283z M69.525,76.999H69.35c-0.824-0.058-1.599-0.531-2.067-1.238
				c-0.239-0.409-0.351-0.824-0.351-1.355c0.112-1.355,1.18-2.306,2.535-2.306l0.175-0.112c0.829,0.058,1.599,0.468,2.067,1.228
				c0.234,0.419,0.356,0.951,0.356,1.428C72.006,76,70.885,76.999,69.525,76.999z"/>
			<circle id="svg_6_1_" fill="#3498DB" cx="40.602" cy="56.638" r="0.887"/>
			<path id="svg_7" fill="#3498DB" d="M40.602,60.182h-0.236c-1.182-0.063-2.301-0.707-2.893-1.77
				c-0.356-0.648-0.529-1.306-0.473-2.067c0.061-0.833,0.414-1.594,0.946-2.189L14.629,71.925l26.796-11.806V60.06
				C41.13,60.182,40.896,60.182,40.602,60.182z M39.717,53.152c0.353-0.056,0.707-0.115,1.119-0.115
				c1.185,0.058,2.308,0.765,2.898,1.765c0.351,0.656,0.531,1.365,0.473,2.074c-0.063,0.887-0.414,1.648-1.009,2.242L66.752,41.76
				L39.717,53.152z"/>
		</g>
	</g>
</g>
<g>
	<title>Layer 1</title>
	<g id="svg_7_1_">
		<g id="svg_4_3_" transform="matrix(0.20403113154043037,0,0,0.20403113154043037,-16.678066443358937,-10.116468331177073) ">
			<circle id="svg_5_3_" fill="#61DAFB" cx="121.041" cy="89.03" r="6.529"/>
			<path id="svg_6_2_" fill="#61DAFB" d="M145.836,78.265c-1.264-0.46-2.58-0.917-3.953-1.319c0.345-1.374,0.632-2.75,0.857-4.066
				c1.206-7.558-0.115-12.885-3.776-14.945c-1.091-0.627-2.293-0.917-3.662-0.917c-4.006,0-9.108,2.977-14.261,7.96
				c-5.157-4.983-10.252-7.96-14.256-7.96c-1.378,0-2.582,0.29-3.669,0.917c-3.666,2.118-4.983,7.445-3.779,14.945
				c0.23,1.316,0.517,2.692,0.857,4.066c-1.371,0.402-2.69,0.804-3.949,1.319c-7.158,2.747-11.052,6.526-11.052,10.767
				c0,4.234,3.951,8.015,11.052,10.762c1.259,0.455,2.578,0.919,3.949,1.321c-0.34,1.374-0.627,2.747-0.857,4.064
				c-1.204,7.558,0.112,12.885,3.779,14.948c1.086,0.632,2.29,0.914,3.669,0.914c4.064,0,9.159-2.977,14.256-7.96
				c5.152,4.983,10.255,7.96,14.261,7.96c1.369,0,2.57-0.282,3.662-0.914c3.661-2.125,4.983-7.448,3.776-14.948
				c-0.225-1.316-0.512-2.69-0.857-4.064c1.374-0.402,2.69-0.804,3.953-1.321c7.156-2.747,11.052-6.529,11.052-10.762
				C156.888,84.792,152.992,81.013,145.836,78.265z M137.36,60.798c2.35,1.376,3.154,5.614,2.178,11.626
				c-0.172,1.204-0.459,2.463-0.799,3.779c-2.977-0.687-6.131-1.144-9.453-1.431c-1.948-2.747-3.953-5.21-5.952-7.445
				c4.238-4.178,8.532-7.043,12.021-7.043C136.096,60.283,136.79,60.455,137.36,60.798z M130.946,94.754
				c-1.034,1.833-2.23,3.671-3.489,5.495c-2.125,0.172-4.238,0.239-6.416,0.239c-2.233,0-4.353-0.067-6.414-0.239
				c-1.259-1.824-2.407-3.662-3.437-5.495c-1.089-1.891-2.118-3.836-3.035-5.722c0.917-1.893,1.946-3.839,3.035-5.727
				c1.029-1.836,2.233-3.666,3.496-5.5c2.113-0.172,4.234-0.227,6.406-0.227c2.24,0,4.353,0.055,6.416,0.227
				c1.259,1.833,2.403,3.664,3.437,5.5c1.086,1.888,2.12,3.834,3.039,5.727C133.009,90.918,132.033,92.811,130.946,94.754z
				 M135.699,92.864c0.862,2.01,1.551,3.953,2.173,5.897c-1.943,0.459-4.006,0.804-6.179,1.096c0.68-1.096,1.426-2.24,2.058-3.441
				C134.435,95.214,135.067,94.008,135.699,92.864z M121.041,108.381c-1.376-1.479-2.69-3.087-3.953-4.748
				c1.319,0.057,2.635,0.115,3.953,0.115c1.314,0,2.63-0.057,3.951-0.115C123.733,105.294,122.414,106.902,121.041,108.381z
				 M110.389,99.794c-2.175-0.287-4.238-0.627-6.186-1.082c0.632-1.896,1.319-3.901,2.178-5.902
				c0.629,1.144,1.261,2.345,1.948,3.489C109.015,97.569,109.702,98.65,110.389,99.794z M106.38,85.194
				c-0.859-2.005-1.546-3.954-2.178-5.897c1.948-0.459,4.011-0.802,6.186-1.089c-0.687,1.089-1.431,2.233-2.061,3.437
				C107.641,82.846,107.01,84.045,106.38,85.194z M121.041,69.674c1.374,1.489,2.692,3.094,3.951,4.753
				c-1.321-0.055-2.637-0.112-3.951-0.112c-1.319,0-2.635,0.057-3.953,0.112C118.351,72.768,119.665,71.162,121.041,69.674z
				 M133.751,81.7l-2.058-3.434c2.173,0.285,4.236,0.629,6.179,1.086c-0.622,1.888-1.311,3.894-2.173,5.897
				C135.067,84.045,134.435,82.846,133.751,81.7z M102.544,72.424c-0.974-6.012-0.172-10.25,2.175-11.626
				c0.574-0.342,1.259-0.515,2.005-0.515c3.437,0,7.73,2.805,12.023,7.043c-2.003,2.178-4.009,4.698-5.957,7.445
				c-3.319,0.287-6.466,0.802-9.446,1.431C103.003,74.886,102.774,73.627,102.544,72.424z M88.4,89.032
				c0-2.69,3.264-5.557,8.989-7.675c1.149-0.459,2.408-0.862,3.666-1.204c0.914,2.862,2.061,5.897,3.434,8.931
				c-1.374,3.037-2.575,6.014-3.434,8.876C93.153,95.668,88.4,92.237,88.4,89.032z M104.719,117.264
				c-2.348-1.378-3.149-5.614-2.175-11.626c0.17-1.206,0.459-2.46,0.802-3.776c2.979,0.684,6.126,1.144,9.446,1.426
				c1.948,2.747,3.953,5.212,5.957,7.448c-4.234,4.174-8.532,7.041-12.023,7.041C105.978,117.777,105.294,117.604,104.719,117.264z
				 M139.538,105.638c0.976,6.012,0.172,10.248-2.178,11.626c-0.57,0.34-1.264,0.512-2.005,0.512c-3.432,0-7.735-2.805-12.021-7.041
				c1.998-2.178,4.004-4.7,5.952-7.448c3.322-0.282,6.476-0.799,9.453-1.426C139.078,103.178,139.308,104.432,139.538,105.638z
				 M144.688,96.702c-1.144,0.46-2.403,0.866-3.662,1.206c-0.919-2.872-2.063-5.901-3.437-8.934c1.374-3.037,2.58-6.014,3.437-8.879
				c7.902,2.293,12.655,5.727,12.655,8.936C153.681,91.72,150.359,94.592,144.688,96.702z"/>
		</g>
	</g>
</g>
</svg>
